<svg width="20" height="20" viewBox="0 0 20 20" fill="none" xmlns="http://www.w3.org/2000/svg">
<path fill-rule="evenodd" clip-rule="evenodd" d="M5.26845 2.13709C4.15559 2.58093 3.66311 3.97166 4.29169 4.89525C4.92694 5.82867 5.74543 6.09305 6.69662 5.67228C7.4371 5.34476 7.78755 4.79607 7.78818 3.96372C7.78919 2.61445 6.46991 1.6581 5.26845 2.13709ZM11.442 2.27911C10.6459 2.82087 10.5026 3.14448 10.4554 4.50573L10.4126 5.73806L11.9676 5.81102C12.8631 5.85311 13.5733 5.83446 13.6422 5.76704C13.7175 5.69357 13.7074 5.6501 13.6149 5.6501C13.5341 5.6501 13.2712 5.45351 13.031 5.21319C12.4307 4.61284 12.3158 3.86745 12.701 3.07152C12.8534 2.75697 13.0295 2.49964 13.0927 2.49964C13.3339 2.49964 13.1939 2.1473 12.9239 2.07496C12.373 1.9274 11.8537 1.99885 11.442 2.27911ZM13.68 2.0824C13.382 2.16028 13.4022 2.27584 13.7748 2.62579C14.1866 3.01279 14.3401 3.6018 14.3409 4.79948C14.3416 5.76666 14.3448 5.77612 14.6688 5.77612C15.5149 5.77612 16.2804 4.86727 16.2804 3.86278C16.2804 2.58307 15.0328 1.72892 13.68 2.0824ZM3.19621 6.81236C3.03365 7.04436 3 7.55007 3 9.76572V12.4391L3.40956 12.4786L3.81912 12.5181V15.259V18L4.66974 17.9999C5.13752 17.9999 5.52036 17.9784 5.52036 17.9522C5.52036 17.926 5.4353 17.7011 5.33134 17.4522C4.76035 16.0858 5.54594 14.1219 7.44214 12.1756L8.41878 11.173V9.05057C8.41878 7.28922 8.38513 6.89465 8.2208 6.7302C8.05509 6.56461 7.64427 6.53223 5.7075 6.53223C3.45795 6.53223 3.38675 6.54016 3.19621 6.81236ZM9.49712 6.81236C9.23777 7.18248 9.20186 10.7533 9.45843 10.6458C10.7647 10.0985 12.3424 10.0556 13.2898 10.5412C13.9404 10.8747 14.5269 11.5724 14.7792 12.3129C15.0046 12.9745 15.0289 14.197 14.831 14.9103C14.6029 15.7318 14.0018 16.9018 13.5162 17.469L13.0618 17.9999H14.7099H16.3579V15.2275V12.4551H16.736H17.114V9.70221C17.114 7.19533 17.0935 6.93069 16.8835 6.74078C16.6809 6.5573 16.2344 6.53223 13.1732 6.53223C9.71992 6.53223 9.69169 6.53437 9.49712 6.81236Z" fill="currentColor"/>
</svg>
