<svg width="20" height="18" viewBox="0 0 14 18" fill="none" xmlns="http://www.w3.org/2000/svg">
<path d="M9.5 17.3334L9.15333 17.8534C9.24745 17.9161 9.35684 17.9522 9.46983 17.9576C9.58281 17.9631 9.69516 17.9378 9.7949 17.8844C9.89463 17.831 9.97801 17.7516 10.0361 17.6545C10.0943 17.5575 10.125 17.4465 10.125 17.3334H9.5ZM7 15.6667L7.34666 15.1467C7.244 15.0783 7.12338 15.0418 7 15.0418C6.87662 15.0418 6.75599 15.0783 6.65333 15.1467L7 15.6667ZM4.5 17.3334H3.875C3.87501 17.4465 3.90571 17.5575 3.96385 17.6545C4.02198 17.7516 4.10536 17.831 4.20509 17.8844C4.30483 17.9378 4.41718 17.9631 4.53017 17.9576C4.64315 17.9522 4.75254 17.9161 4.84666 17.8534L4.5 17.3334ZM9.84666 16.8134L7.34666 15.1467L6.65333 16.1867L9.15333 17.8534L9.84666 16.8134ZM6.65333 15.1467L4.15333 16.8134L4.84666 17.8534L7.34666 16.1867L6.65333 15.1467ZM7.79333 1.73006L7.82833 1.77173L8.78083 0.961728L8.745 0.920061L7.79333 1.73006ZM9.7575 2.57089L9.81166 2.56589L9.71166 1.32006L9.6575 1.32506L9.7575 2.57089ZM10.9342 3.68756L10.9292 3.74256L12.175 3.84256L12.18 3.78839L10.9342 3.68756ZM11.7283 5.67089L11.77 5.70673L12.58 4.75506L12.5383 4.71923L11.7283 5.67089ZM11.77 7.29339L11.7283 7.32839L12.5383 8.28089L12.58 8.24506L11.77 7.29339ZM10.9292 9.25756L10.9342 9.31173L12.18 9.21173L12.175 9.15756L10.9292 9.25756ZM9.8125 10.4342L9.7575 10.4292L9.6575 11.6751L9.71166 11.6801L9.8125 10.4342ZM7.82916 11.2284L7.79333 11.2701L8.745 12.0801L8.78083 12.0384L7.82916 11.2284ZM6.20666 11.2701L6.17083 11.2284L5.21916 12.0384L5.255 12.0801L6.20666 11.2701ZM4.2425 10.4292L4.18833 10.4334L4.28833 11.6801L4.3425 11.6759L4.2425 10.4292ZM3.06583 9.31256L3.07083 9.25756L1.825 9.15756L1.82 9.21173L3.06583 9.31256ZM2.27166 7.32923L2.23 7.29339L1.42 8.24506L1.46166 8.28089L2.27166 7.32923ZM2.23 5.70673L2.27166 5.67089L1.46166 4.71923L1.42 4.75506L2.23 5.70673ZM3.07083 3.74256L3.06583 3.68839L1.82 3.78839L1.825 3.84256L3.07083 3.74256ZM4.1875 2.56589L4.2425 2.57089L4.3425 1.32506L4.28833 1.32006L4.1875 2.56589ZM6.17083 1.77173L6.20666 1.73006L5.255 0.920061L5.21916 0.961728L6.17083 1.77173ZM4.2425 2.57089C4.60444 2.59992 4.9681 2.54252 5.30351 2.40343C5.63892 2.26434 5.93648 2.04754 6.17166 1.77089L5.21916 0.961728C5.11225 1.08739 4.97702 1.18586 4.82461 1.24902C4.67219 1.31219 4.50695 1.33825 4.3425 1.32506L4.2425 2.57089ZM3.06583 3.68839C3.05387 3.53802 3.07472 3.38601 3.12692 3.24449C3.17913 3.10296 3.26145 2.97446 3.3682 2.86788C3.47494 2.76129 3.60356 2.67916 3.74517 2.62716C3.88677 2.57517 4.03798 2.55455 4.18833 2.56673L4.28833 1.32089C3.95742 1.29423 3.62466 1.33978 3.31308 1.45439C3.00151 1.56901 2.71856 1.74995 2.48381 1.9847C2.24906 2.21945 2.06811 2.50241 1.9535 2.81398C1.83888 3.12556 1.79333 3.45831 1.82 3.78923L3.06583 3.68839ZM2.27166 5.67089C2.54804 5.43571 2.76461 5.13825 2.90355 4.803C3.04248 4.46775 3.09982 4.1043 3.07083 3.74256L1.825 3.84256C1.85166 4.17589 1.71666 4.50256 1.46166 4.71923L2.27166 5.67089ZM2.23 7.29339C2.11507 7.1956 2.02277 7.07401 1.95947 6.93704C1.89616 6.80006 1.86338 6.65096 1.86338 6.50006C1.86338 6.34916 1.89616 6.20007 1.95947 6.06309C2.02277 5.92611 2.11507 5.80452 2.23 5.70673L1.42 4.75506C1.16728 4.9702 0.964304 5.23766 0.825112 5.53895C0.68592 5.84024 0.613831 6.16817 0.613831 6.50006C0.613831 6.83195 0.68592 7.15988 0.825112 7.46117C0.964304 7.76246 1.16728 8.02992 1.42 8.24506L2.23 7.29339ZM3.07083 9.25756C3.09985 8.89562 3.04246 8.53196 2.90337 8.19655C2.76428 7.86114 2.54748 7.56358 2.27083 7.32839L1.46166 8.28089C1.71666 8.49756 1.85166 8.82423 1.825 9.15756L3.07083 9.25756ZM4.1875 10.4342C4.03706 10.4463 3.88579 10.4256 3.74416 10.3734C3.60253 10.3213 3.47393 10.239 3.36725 10.1322C3.26057 10.0254 3.17836 9.89678 3.12632 9.75511C3.07427 9.61344 3.05363 9.46216 3.06583 9.31173L1.82 9.21173C1.79333 9.54264 1.83888 9.8754 1.9535 10.187C2.06811 10.4985 2.24906 10.7815 2.48381 11.0163C2.71856 11.251 3.00151 11.4319 3.31308 11.5466C3.62466 11.6612 3.95742 11.7067 4.28833 11.6801L4.1875 10.4342ZM7.79333 11.2701C7.69554 11.385 7.57395 11.4773 7.43697 11.5406C7.29999 11.6039 7.1509 11.6367 7 11.6367C6.8491 11.6367 6.7 11.6039 6.56302 11.5406C6.42604 11.4773 6.30445 11.385 6.20666 11.2701L5.255 12.0801C5.47013 12.3328 5.7376 12.5358 6.03889 12.6749C6.34018 12.8141 6.66811 12.8862 7 12.8862C7.33189 12.8862 7.65982 12.8141 7.96111 12.6749C8.2624 12.5358 8.52986 12.3328 8.745 12.0801L7.79333 11.2701ZM10.9342 9.31173C10.9462 9.46217 10.9255 9.61344 10.8733 9.75506C10.8212 9.89669 10.7389 10.0253 10.6321 10.132C10.5254 10.2387 10.3967 10.3209 10.255 10.3729C10.1134 10.425 9.96209 10.4456 9.81166 10.4334L9.71166 11.6801C10.0426 11.7067 10.3753 11.6612 10.6869 11.5466C10.9985 11.4319 11.2814 11.251 11.5162 11.0163C11.7509 10.7815 11.9319 10.4985 12.0465 10.187C12.1611 9.8754 12.2067 9.54264 12.18 9.21173L10.9342 9.31173ZM11.7283 7.32839C11.4518 7.56367 11.2352 7.86126 11.0963 8.19666C10.9573 8.53207 10.9 8.89569 10.9292 9.25756L12.175 9.15756C12.1483 8.82423 12.2833 8.49756 12.5383 8.28089L11.7283 7.32839ZM11.77 5.70673C11.8849 5.80452 11.9772 5.92611 12.0405 6.06309C12.1038 6.20007 12.1366 6.34916 12.1366 6.50006C12.1366 6.65096 12.1038 6.80006 12.0405 6.93704C11.9772 7.07401 11.8849 7.1956 11.77 7.29339L12.58 8.24506C12.8327 8.02992 13.0357 7.76246 13.1749 7.46117C13.3141 7.15988 13.3862 6.83195 13.3862 6.50006C13.3862 6.16817 13.3141 5.84024 13.1749 5.53895C13.0357 5.23766 12.8327 4.9702 12.58 4.75506L11.77 5.70673ZM10.9292 3.74256C10.9001 4.1045 10.9575 4.46816 11.0966 4.80357C11.2357 5.13898 11.4525 5.43654 11.7292 5.67173L12.5383 4.71923C12.4127 4.61232 12.3142 4.47709 12.251 4.32467C12.1879 4.17226 12.1618 4.00702 12.175 3.84256L10.9292 3.74256ZM9.8125 2.56589C9.96294 2.55381 10.1142 2.57456 10.2558 2.62671C10.3975 2.67886 10.5261 2.76116 10.6327 2.86792C10.7394 2.97468 10.8216 3.10335 10.8737 3.24501C10.9257 3.38668 10.9464 3.53713 10.9342 3.68756L12.18 3.78839C12.2067 3.45748 12.1611 3.12472 12.0465 2.81315C11.9319 2.50157 11.7509 2.21862 11.5162 1.98387C11.2814 1.74912 10.9985 1.56818 10.6869 1.45356C10.3753 1.33895 10.0426 1.2934 9.71166 1.32006L9.8125 2.56589ZM7.82833 1.77173C8.06352 2.0481 8.36181 2.26467 8.69706 2.40361C9.03231 2.54255 9.39576 2.59988 9.7575 2.57089L9.6575 1.32506C9.49304 1.33825 9.3278 1.31219 9.17539 1.24902C9.02297 1.18586 8.88774 1.08739 8.78083 0.961728L7.82833 1.77173ZM8.74583 0.920061C8.5307 0.667056 8.26314 0.463834 7.96169 0.324466C7.66024 0.185098 7.3321 0.112915 7 0.112915C6.66789 0.112915 6.33975 0.185098 6.0383 0.324466C5.73685 0.463834 5.4693 0.667056 5.25416 0.920061L6.20666 1.73006C6.30445 1.61514 6.42604 1.52283 6.56302 1.45953C6.7 1.39623 6.8491 1.36344 7 1.36344C7.1509 1.36344 7.29999 1.39623 7.43697 1.45953C7.57395 1.52283 7.69554 1.61514 7.79333 1.73006L8.74583 0.920061ZM6.17083 11.2284C5.96683 10.9887 5.71563 10.7936 5.43289 10.6552C5.15016 10.5168 4.84196 10.4382 4.5275 10.4242L4.4725 11.6734C4.75916 11.6859 5.03083 11.8167 5.21916 12.0384L6.17083 11.2284ZM4.5275 10.4242C4.43248 10.4205 4.33732 10.4221 4.2425 10.4292L4.3425 11.6751C4.38583 11.6717 4.42916 11.6712 4.4725 11.6734L4.5275 10.4242ZM5.125 17.3334V11.0484H3.875V17.3334H5.125ZM9.75833 10.4292C9.66323 10.4221 9.56779 10.4204 9.4725 10.4242L9.5275 11.6734C9.57083 11.6712 9.61416 11.6717 9.6575 11.6751L9.75833 10.4292ZM9.4725 10.4242C9.1579 10.4381 8.84953 10.5167 8.56665 10.655C8.28376 10.7934 8.03326 10.9886 7.82916 11.2284L8.78083 12.0384C8.87357 11.9296 8.98773 11.841 9.11619 11.7782C9.24464 11.7154 9.38465 11.6797 9.5275 11.6734L9.4725 10.4242ZM8.875 11.0492V17.3334H10.125V11.0484L8.875 11.0492Z" fill="currentColor"/>
<path d="M8.66668 5.66675L6.16668 8.16675L5.33334 7.33341" stroke="currentColor" stroke-width="1.4" stroke-linecap="round" stroke-linejoin="round"/>
</svg>
