<svg width="20" height="20" viewBox="0 0 20 20" fill="none" xmlns="http://www.w3.org/2000/svg">
<path d="M5.92775 9.65225V6.30585C5.92775 6.10635 5.99824 5.93612 6.1392 5.79515C6.27957 5.65419 6.4504 5.58371 6.65169 5.58371C6.85298 5.58371 7.02381 5.65419 7.16417 5.79515C7.30514 5.93612 7.37562 6.10635 7.37562 6.30585V9.65225C7.37562 9.85175 7.30514 10.022 7.16417 10.1629C7.02321 10.3039 6.85238 10.3744 6.65169 10.3744C6.45099 10.3744 6.28016 10.3039 6.1392 10.1629C5.99824 10.022 5.92775 9.85175 5.92775 9.65225ZM9.82248 10.8268V2.72381C9.82248 2.52312 9.89266 2.35229 10.033 2.21132C10.174 2.07036 10.3448 1.99988 10.5455 1.99988C10.7468 1.99988 10.9176 2.07036 11.058 2.21132C11.199 2.35229 11.2695 2.52312 11.2695 2.72381V10.8268C11.2695 11.0682 11.1954 11.2491 11.0473 11.3698C10.8985 11.4905 10.7322 11.5508 10.5482 11.5508C10.3642 11.5508 10.197 11.4905 10.0465 11.3698C9.89595 11.2491 9.82128 11.0682 9.82248 10.8268ZM1.99988 12.746V9.89147C1.99988 9.69077 2.07006 9.51994 2.21043 9.37898C2.35139 9.23802 2.52252 9.16753 2.72381 9.16753C2.9251 9.16753 3.09593 9.23802 3.2363 9.37898C3.37667 9.51994 3.44685 9.69077 3.44685 9.89147V12.7469C3.44685 12.9882 3.37278 13.1689 3.22465 13.2889C3.07652 13.4096 2.91017 13.4699 2.7256 13.4699C2.54163 13.4699 2.37439 13.4096 2.22387 13.2889C2.07454 13.1689 1.99988 12.9882 1.99988 12.7469M2.97199 17.9999C2.77189 17.9999 2.63362 17.9088 2.55716 17.7266C2.48071 17.545 2.51535 17.3811 2.66109 17.2347L6.16249 13.7342C6.29211 13.604 6.45189 13.5314 6.64183 13.5165C6.83177 13.5016 7.00051 13.5592 7.14805 13.6894L9.82248 15.9876L15.8729 9.93626H14.2673C14.1401 9.93626 14.0338 9.89326 13.9484 9.80725C13.8629 9.72124 13.8199 9.61462 13.8193 9.48739C13.8187 9.36017 13.8618 9.25384 13.9484 9.16843C14.035 9.08301 14.1413 9.04031 14.2673 9.04031H16.6792C16.8847 9.04031 17.0567 9.1096 17.1953 9.24817C17.3339 9.38674 17.4032 9.55877 17.4032 9.76424V12.1762C17.4032 12.3034 17.3602 12.4097 17.2742 12.4951C17.1881 12.5805 17.0815 12.6235 16.9543 12.6241C16.8271 12.6247 16.7207 12.5817 16.6353 12.4951C16.5499 12.4085 16.5072 12.3022 16.5072 12.1762V10.5706L10.3215 16.7563C10.1919 16.8859 10.0321 16.9582 9.84219 16.9731C9.65225 16.988 9.48351 16.9304 9.33597 16.8002L6.66154 14.5021L3.29543 17.8691C3.2572 17.9049 3.20912 17.9357 3.15118 17.9614C3.09324 17.987 3.03351 17.9999 2.97199 17.9999Z" fill="currentColor"/>
<path d="M1.99988 12.746V9.89147C1.99988 9.69077 2.07006 9.51994 2.21043 9.37898C2.35139 9.23802 2.52252 9.16753 2.72381 9.16753C2.9251 9.16753 3.09593 9.23802 3.2363 9.37898C3.37667 9.51994 3.44685 9.69077 3.44685 9.89147V12.7469C3.44685 12.9882 3.37278 13.1689 3.22465 13.2889C3.07652 13.4096 2.91017 13.4699 2.7256 13.4699C2.54163 13.4699 2.37439 13.4096 2.22387 13.2889C2.07454 13.1689 1.99988 12.9882 1.99988 12.7469M5.92775 9.65225V6.30585C5.92775 6.10635 5.99824 5.93612 6.1392 5.79515C6.27957 5.65419 6.4504 5.58371 6.65169 5.58371C6.85298 5.58371 7.02381 5.65419 7.16417 5.79515C7.30514 5.93612 7.37562 6.10635 7.37562 6.30585V9.65225C7.37562 9.85175 7.30514 10.022 7.16417 10.1629C7.02321 10.3039 6.85238 10.3744 6.65169 10.3744C6.45099 10.3744 6.28016 10.3039 6.1392 10.1629C5.99824 10.022 5.92775 9.85175 5.92775 9.65225ZM9.82248 10.8268V2.72381C9.82248 2.52312 9.89266 2.35229 10.033 2.21132C10.174 2.07036 10.3448 1.99988 10.5455 1.99988C10.7468 1.99988 10.9176 2.07036 11.058 2.21132C11.199 2.35229 11.2695 2.52312 11.2695 2.72381V10.8268C11.2695 11.0682 11.1954 11.2491 11.0473 11.3698C10.8985 11.4905 10.7322 11.5508 10.5482 11.5508C10.3642 11.5508 10.197 11.4905 10.0465 11.3698C9.89595 11.2491 9.82128 11.0682 9.82248 10.8268ZM2.97199 17.9999C2.77189 17.9999 2.63362 17.9088 2.55716 17.7266C2.48071 17.545 2.51535 17.3811 2.66109 17.2347L6.16249 13.7342C6.29211 13.604 6.45189 13.5314 6.64183 13.5165C6.83177 13.5016 7.00051 13.5592 7.14805 13.6894L9.82248 15.9876L15.8729 9.93626H14.2673C14.1401 9.93626 14.0338 9.89326 13.9484 9.80725C13.8629 9.72124 13.8199 9.61462 13.8193 9.48739C13.8187 9.36016 13.8618 9.25384 13.9484 9.16843C14.035 9.08301 14.1413 9.04031 14.2673 9.04031H16.6792C16.8847 9.04031 17.0567 9.1096 17.1953 9.24817C17.3339 9.38674 17.4032 9.55877 17.4032 9.76424V12.1762C17.4032 12.3034 17.3602 12.4097 17.2742 12.4951C17.1881 12.5805 17.0815 12.6235 16.9543 12.6241C16.8271 12.6247 16.7208 12.5817 16.6353 12.4951C16.5499 12.4085 16.5072 12.3022 16.5072 12.1762V10.5706L10.3215 16.7563C10.1919 16.8859 10.0321 16.9582 9.84219 16.9731C9.65225 16.988 9.48351 16.9304 9.33597 16.8002L6.66154 14.5021L3.29543 17.8691C3.2572 17.9049 3.20912 17.9357 3.15118 17.9614C3.09324 17.987 3.03351 17.9999 2.97199 17.9999Z" stroke="currentColor" stroke-width="0.5"/>
</svg>
