<svg width="20" height="20" viewBox="0 0 20 20" fill="none" xmlns="http://www.w3.org/2000/svg">
<path d="M7.85715 13.5715L4.28572 5.71432L0.714294 13.5715M7.85715 13.5715C7.85715 14.5187 7.48088 15.4271 6.81111 16.0968C6.14133 16.7666 5.23293 17.1429 4.28572 17.1429C3.33852 17.1429 2.43011 16.7666 1.76034 16.0968C1.09057 15.4271 0.714294 14.5187 0.714294 13.5715M7.85715 13.5715H0.714294M19.2857 13.5715L15.7143 5.71432L12.1429 13.5715M19.2857 13.5715C19.2857 14.5187 18.9095 15.4271 18.2397 16.0968C17.5699 16.7666 16.6615 17.1429 15.7143 17.1429C14.7671 17.1429 13.8587 16.7666 13.1889 16.0968C12.5191 15.4271 12.1429 14.5187 12.1429 13.5715M19.2857 13.5715H12.1429M2.14287 5.71432H17.8572M10 5.71432V2.85718" stroke="currentColor" stroke-width="1.4" stroke-linecap="round" stroke-linejoin="round"/>
</svg>
