<svg width="20" height="20" viewBox="0 0 20 20" fill="none" xmlns="http://www.w3.org/2000/svg">
<path d="M16.5 5.00053C16.7083 5.00053 16.9036 5.03959 17.0859 5.11772C17.2682 5.19584 17.4271 5.30261 17.5625 5.43803C17.6979 5.57345 17.8047 5.7323 17.8828 5.91459C17.9609 6.09688 18 6.2922 18 6.50053V15.5005C18 15.7089 17.9609 15.9042 17.8828 16.0865C17.8047 16.2688 17.6979 16.4276 17.5625 16.563C17.4271 16.6984 17.2682 16.8052 17.0859 16.8833C16.9036 16.9615 16.7083 17.0005 16.5 17.0005H3.5C3.29167 17.0005 3.09635 16.9615 2.91406 16.8833C2.73177 16.8052 2.57292 16.6984 2.4375 16.563C2.30208 16.4276 2.19531 16.2688 2.11719 16.0865C2.03906 15.9042 2 15.7089 2 15.5005V6.50053C2 6.2922 2.03906 6.09688 2.11719 5.91459C2.19531 5.7323 2.30208 5.57345 2.4375 5.43803C2.57292 5.30261 2.73177 5.19584 2.91406 5.11772C3.09635 5.03959 3.29167 5.00053 3.5 5.00053H7V4.00053C7 3.8599 7.02604 3.7297 7.07812 3.6099C7.13021 3.49011 7.20052 3.38595 7.28906 3.2974C7.3776 3.20886 7.48438 3.13595 7.60938 3.07865C7.73438 3.02136 7.86458 2.99532 8 3.00053H12C12.1406 3.00053 12.2708 3.02657 12.3906 3.07865C12.5104 3.13074 12.6146 3.20105 12.7031 3.28959C12.7917 3.37813 12.8646 3.4849 12.9219 3.6099C12.9792 3.7349 13.0052 3.86511 13 4.00053V5.00053H16.5ZM8 5.00053H12V4.00053H8V5.00053ZM6 6.00053V16.0005H14V6.00053H6ZM3 15.5005C3 15.6359 3.04948 15.7531 3.14844 15.8521C3.2474 15.9511 3.36458 16.0005 3.5 16.0005H5V6.00053H3.5C3.36458 6.00053 3.2474 6.05001 3.14844 6.14897C3.04948 6.24793 3 6.36511 3 6.50053V15.5005ZM17 6.50053C17 6.36511 16.9505 6.24793 16.8516 6.14897C16.7526 6.05001 16.6354 6.00053 16.5 6.00053H15V16.0005H16.5C16.6354 16.0005 16.7526 15.9511 16.8516 15.8521C16.9505 15.7531 17 15.6359 17 15.5005V6.50053Z" fill="currentColor"/>
</svg>
