<svg width="20" height="20" viewBox="0 0 20 20" fill="none" xmlns="http://www.w3.org/2000/svg">
<path d="M9.99996 18.3333C8.84718 18.3333 7.76385 18.1144 6.74996 17.6766C5.73607 17.2388 4.85413 16.6452 4.10413 15.8958C3.35413 15.1463 2.76052 14.2644 2.32329 13.25C1.88607 12.2355 1.66718 11.1522 1.66663 9.99996C1.66607 8.84774 1.88496 7.7644 2.32329 6.74996C2.76163 5.73552 3.35524 4.85357 4.10413 4.10413C4.85302 3.35468 5.73496 2.76107 6.74996 2.32329C7.76496 1.88551 8.84829 1.66663 9.99996 1.66663C12.0277 1.66663 13.8022 2.30218 15.3233 3.57329C16.8444 4.8444 17.7922 6.43801 18.1666 8.35413H16.4583C16.1944 7.34024 15.7186 6.43413 15.0308 5.63579C14.343 4.83746 13.4994 4.23663 12.5 3.83329V4.16663C12.5 4.62496 12.3369 5.01746 12.0108 5.34413C11.6847 5.67079 11.2922 5.83385 10.8333 5.83329H9.16663V7.49996C9.16663 7.73607 9.08663 7.93413 8.92663 8.09413C8.76663 8.25413 8.56885 8.33385 8.33329 8.33329H6.66663V9.99996H8.33329V12.5H7.49996L3.49996 8.49996C3.45829 8.74996 3.42024 8.99996 3.38579 9.24996C3.35135 9.49996 3.33385 9.74996 3.33329 9.99996C3.33329 11.8194 3.97218 13.3819 5.24996 14.6875C6.52774 15.993 8.11107 16.6527 9.99996 16.6666V18.3333ZM17.5833 17.9166L14.9166 15.25C14.625 15.4166 14.3125 15.5555 13.9791 15.6666C13.6458 15.7777 13.2916 15.8333 12.9166 15.8333C11.875 15.8333 10.9897 15.4688 10.2608 14.74C9.5319 14.0111 9.16718 13.1255 9.16663 12.0833C9.16607 11.0411 9.53079 10.1558 10.2608 9.42746C10.9908 8.69913 11.8761 8.3344 12.9166 8.33329C13.9572 8.33218 14.8427 8.6969 15.5733 9.42746C16.3039 10.158 16.6683 11.0433 16.6666 12.0833C16.6666 12.4583 16.6111 12.8125 16.5 13.1458C16.3889 13.4791 16.25 13.7916 16.0833 14.0833L18.75 16.75L17.5833 17.9166ZM12.9166 14.1666C13.5 14.1666 13.993 13.9652 14.3958 13.5625C14.7986 13.1597 15 12.6666 15 12.0833C15 11.5 14.7986 11.0069 14.3958 10.6041C13.993 10.2013 13.5 9.99996 12.9166 9.99996C12.3333 9.99996 11.8402 10.2013 11.4375 10.6041C11.0347 11.0069 10.8333 11.5 10.8333 12.0833C10.8333 12.6666 11.0347 13.1597 11.4375 13.5625C11.8402 13.9652 12.3333 14.1666 12.9166 14.1666Z" fill="currentColor"/>
</svg>
