<svg width="20" height="20" viewBox="0 0 20 20" fill="none" xmlns="http://www.w3.org/2000/svg">
<path d="M7.5 1.17651C6.83696 1.17651 6.20107 1.42441 5.73223 1.86567C5.26339 2.30694 5 2.90542 5 3.52945V7.36945L5.1325 7.3071C5.47949 7.14388 5.86208 7.05889 6.25 7.05887V3.52945C6.25 3.21744 6.3817 2.9182 6.61612 2.69756C6.85054 2.47693 7.16848 2.35298 7.5 2.35298H11.25V5.29416C11.25 5.76219 11.4475 6.21105 11.7992 6.542C12.1508 6.87294 12.6277 7.05887 13.125 7.05887H16.25V15.2942C16.25 15.6062 16.1183 15.9054 15.8839 16.1261C15.6495 16.3467 15.3315 16.4706 15 16.4706H12.4225C12.2988 16.9256 12.0332 17.3354 11.66 17.6471H15C15.663 17.6471 16.2989 17.3992 16.7678 16.9579C17.2366 16.5167 17.5 15.9182 17.5 15.2942V6.36946C17.4996 5.90158 17.3017 5.45303 16.95 5.1224L13.3075 1.69298C12.956 1.36237 12.4794 1.17661 11.9825 1.17651H7.5ZM11.1175 9.07181C11.3142 9.16514 11.4929 9.27847 11.6537 9.41181H14.375C14.5408 9.41181 14.6997 9.34983 14.8169 9.23952C14.9342 9.1292 15 8.97958 15 8.82357C15 8.66756 14.9342 8.51794 14.8169 8.40763C14.6997 8.29731 14.5408 8.23534 14.375 8.23534H10.625C10.5062 8.2353 10.3898 8.26715 10.2895 8.32717C10.1892 8.38718 10.1091 8.47286 10.0588 8.57416L11.1175 9.07181ZM12.5 11.1765V11.7647H14.375C14.5408 11.7647 14.6997 11.7028 14.8169 11.5925C14.9342 11.4821 15 11.3325 15 11.1765C15 11.0205 14.9342 10.8709 14.8169 10.7606C14.6997 10.6503 14.5408 10.5883 14.375 10.5883H12.4213C12.4729 10.7781 12.4992 10.9742 12.5 11.1765ZM12.5 12.9412V14.1177H14.375C14.5408 14.1177 14.6997 14.0557 14.8169 13.9454C14.9342 13.8351 15 13.6855 15 13.5295C15 13.3734 14.9342 13.2238 14.8169 13.1135C14.6997 13.0032 14.5408 12.9412 14.375 12.9412H12.5ZM15.9913 5.8824H13.125C12.9592 5.8824 12.8003 5.82042 12.6831 5.71011C12.5658 5.59979 12.5 5.45017 12.5 5.29416V2.59651L15.9913 5.8824ZM10.5587 10.1247L6.80875 8.36004C6.63525 8.27845 6.44396 8.23597 6.25 8.23597C6.05604 8.23597 5.86475 8.27845 5.69125 8.36004L1.94125 10.1247C1.73365 10.2224 1.55903 10.3725 1.43694 10.5582C1.31485 10.744 1.25012 10.9581 1.25 11.1765V15.8871C1.25012 16.1055 1.31485 16.3196 1.43694 16.5054C1.55903 16.6911 1.73365 16.8412 1.94125 16.9389L5.69125 18.7036C5.86475 18.7852 6.05604 18.8277 6.25 18.8277C6.44396 18.8277 6.63525 18.7852 6.80875 18.7036L10.5587 16.9389C10.7664 16.8412 10.941 16.6911 11.0631 16.5054C11.1851 16.3196 11.2499 16.1055 11.25 15.8871V11.1765C11.2499 10.9581 11.1851 10.744 11.0631 10.5582C10.941 10.3725 10.7664 10.2224 10.5587 10.1247ZM2.55 11.4495C2.58228 11.3783 2.62915 11.3139 2.68791 11.2599C2.74667 11.2058 2.81618 11.1632 2.89246 11.1345C2.96874 11.1057 3.05029 11.0914 3.13244 11.0924C3.2146 11.0934 3.29575 11.1095 3.37125 11.14L6.25 12.3012L9.12875 11.14C9.20426 11.1096 9.2854 11.0935 9.36754 11.0925C9.44967 11.0916 9.5312 11.1059 9.60746 11.1347C9.68372 11.1634 9.75322 11.206 9.81199 11.26C9.87077 11.314 9.91766 11.3784 9.95 11.4495C9.98234 11.5205 9.99949 11.5969 10.0005 11.6742C10.0014 11.7515 9.98624 11.8282 9.95571 11.9C9.92518 11.9718 9.87994 12.0372 9.82255 12.0925C9.76516 12.1478 9.69676 12.192 9.62125 12.2224L6.875 13.3283V16.4706C6.875 16.6266 6.80915 16.7763 6.69194 16.8866C6.57473 16.9969 6.41576 17.0589 6.25 17.0589C6.08424 17.0589 5.92527 16.9969 5.80806 16.8866C5.69085 16.7763 5.625 16.6266 5.625 16.4706V13.3295L2.87875 12.2212C2.72647 12.1598 2.60631 12.0441 2.54467 11.8994C2.48302 11.7547 2.48494 11.5928 2.55 11.4495Z" fill="currentColor"/>
</svg>
