<svg width="18" height="20" viewBox="0 0 18 20" fill="none" xmlns="http://www.w3.org/2000/svg">
<path fill-rule="evenodd" clip-rule="evenodd" d="M6.94043 2.53254C4.96194 4.55005 5.66408 3.91947 5.71457 4.88116C5.78666 6.25236 6.65768 7.24054 8.10683 7.59521C8.33057 7.64996 9.45057 7.81468 10.5957 7.96116C11.8067 8.1161 12.9084 8.30587 13.2291 8.41494C14.1369 8.72356 14.5872 9.37334 14.5883 10.3768C14.5889 10.7599 14.4706 11.5458 14.3592 11.9C14.3323 11.9855 14.3479 12.0556 14.3939 12.0556C14.5456 12.0556 16.9065 9.84614 17.1187 9.49947C17.4462 8.96454 17.3408 8.71654 16.3887 7.78107C15.9427 7.34294 14.1749 5.5929 12.4603 3.89218C9.43466 0.891029 9.33261 0.799918 8.99368 0.797429C8.65626 0.794941 8.58666 0.853785 6.94043 2.53254ZM2.86514 8.47627C1.98434 9.31432 1.1543 10.1365 1.0207 10.3032C0.515544 10.9337 0.362389 10.7351 4.70977 15.0866L8.64177 19.0222L9.0431 19.0236L9.44443 19.0249L11.1171 17.3322C13.0631 15.363 12.4426 15.8661 12.3676 14.9322C12.2562 13.5436 11.1071 12.4779 9.38177 12.1632C9.00674 12.0948 8.08123 11.9972 7.32506 11.9463C5.12372 11.7982 4.09981 11.4284 3.71874 10.6437C3.50826 10.2102 3.44728 9.2089 3.58372 8.42561C3.64026 8.10063 3.67457 7.82374 3.65999 7.81032C3.64532 7.7969 3.74594 7.63823 2.86514 8.47627Z" fill="currentColor"/>
</svg>
