<svg width="20" height="20" viewBox="0 0 20 20" fill="none" xmlns="http://www.w3.org/2000/svg">
<mask id="path-1-outside-1_559_1990" maskUnits="userSpaceOnUse" x="0" y="0" width="20" height="20" fill="black">
<rect fill="white" width="20" height="20"/>
<path fill-rule="evenodd" clip-rule="evenodd" d="M6.40766 1.25469C6.06256 1.41373 5.7624 1.59046 5.74054 1.64724C5.68588 1.7898 6.28369 3.06848 6.4053 3.06924C6.57018 3.07023 7.75086 2.50559 7.7892 2.40735C7.83725 2.2843 7.26251 1.04927 7.13528 1.00236C7.08017 0.982014 6.75276 1.09558 6.40766 1.25469ZM12.6906 1.58689C12.6906 1.80537 12.7235 1.85934 12.8802 1.89874C13.1816 1.97435 13.2979 1.88857 13.2979 1.59068C13.2979 1.32856 13.2912 1.32264 12.9942 1.32264C12.6981 1.32264 12.6906 1.32924 12.6906 1.58689ZM15.3145 2.87908C15.2521 3.21196 15.2542 3.21484 15.5927 3.2698C15.8426 3.31034 15.8594 3.29918 15.9067 3.06256C15.9651 2.7706 15.9198 2.70865 15.6018 2.64504C15.3796 2.60055 15.3645 2.61293 15.3145 2.87908ZM3.97958 3.00373C3.59318 3.18303 3.3533 3.33896 3.3533 3.41092C3.3533 3.5837 3.94983 4.73872 4.03902 4.73872C4.22197 4.73872 5.32704 4.12033 5.32704 4.01792C5.32704 3.86078 4.7813 2.77523 4.68519 2.74114C4.64154 2.72573 4.32407 2.84385 3.97958 3.00373ZM6.6959 3.75435C6.42587 3.87012 6.19229 4.00282 6.1768 4.0492C6.13672 4.16945 6.59326 5.11828 6.69112 5.11828C6.79572 5.11828 7.75625 4.68398 7.75625 4.63669C7.75625 4.54969 7.30859 3.61407 7.25105 3.58082C7.21575 3.5604 6.96592 3.63851 6.6959 3.75435ZM13.4136 4.04108C13.3917 4.06294 13.3738 4.17757 13.3738 4.29592C13.3738 4.48426 13.4021 4.51098 13.6015 4.51098C13.802 4.51098 13.8293 4.48471 13.8293 4.29212C13.8293 4.11942 13.7896 4.0656 13.6413 4.03728C13.5379 4.01747 13.4354 4.01921 13.4136 4.04108ZM17.3335 4.93207C17.2003 5.22441 17.2259 5.34238 17.4401 5.42383C17.75 5.54165 17.8324 5.51341 17.9211 5.2588C17.967 5.12731 18.0045 5.00859 18.0045 4.995C18.0045 4.95704 17.5654 4.73872 17.489 4.73872C17.4519 4.73872 17.3819 4.82571 17.3335 4.93207ZM4.96782 5.29577C4.74934 5.42778 4.56996 5.58287 4.56927 5.64041C4.56692 5.82283 5.02976 6.56063 5.14644 6.56063C5.27033 6.56063 6.08617 6.0593 6.08617 5.98316C6.08617 5.86041 5.53344 5.04313 5.45442 5.04905C5.40523 5.05277 5.18622 5.16375 4.96782 5.29577ZM2.27708 5.46088C1.99833 5.6045 1.74956 5.75557 1.72428 5.79649C1.66644 5.89009 2.26479 7.09202 2.36917 7.09202C2.52084 7.09202 3.51279 6.55311 3.55272 6.44896C3.60807 6.3048 3.04054 5.23625 2.89782 5.21591C2.83519 5.20702 2.55591 5.31725 2.27708 5.46088ZM15.042 5.61665C14.945 5.87187 14.935 5.85107 15.1987 5.943C15.4096 6.01656 15.4357 6.00699 15.5023 5.83163C15.6062 5.5585 15.5961 5.52115 15.4045 5.46976C15.1423 5.39954 15.1213 5.40804 15.042 5.61665ZM3.93927 7.28764C3.70045 7.43697 3.50513 7.58264 3.50513 7.61126C3.50513 7.7224 4.04525 8.45845 4.12678 8.45845C4.2821 8.45845 4.94747 7.98976 4.94747 7.8803C4.94747 7.76886 4.4841 7.01982 4.41373 7.01747C4.39156 7.01671 4.17802 7.13832 3.93927 7.28764ZM16.1133 7.5254C16.0327 7.70221 16.0384 7.74487 16.1535 7.82906C16.3713 7.98832 16.5412 7.94467 16.6236 7.70828C16.6914 7.51356 16.6794 7.48016 16.5136 7.40463C16.2504 7.28476 16.2185 7.2944 16.1133 7.5254ZM18.4662 7.65134C18.3793 7.79193 18.3081 7.92584 18.3081 7.94877C18.3081 7.99318 18.7915 8.30662 18.86 8.30662C18.8974 8.30662 19.2191 7.79938 19.2191 7.74047C19.2191 7.71253 18.6976 7.39567 18.6516 7.39567C18.6365 7.39567 18.553 7.51075 18.4662 7.65134ZM1.51241 8.3628C1.23062 8.51706 1 8.68809 1 8.74282C1 8.88652 1.42314 9.7035 1.55363 9.81183C1.64283 9.88584 1.76854 9.84826 2.20382 9.61749C2.50057 9.4602 2.74395 9.28522 2.7447 9.22866C2.74683 9.06196 2.20352 8.07873 2.1103 8.08056C2.06331 8.08147 1.7942 8.20847 1.51241 8.3628ZM3.63934 9.47492C3.44182 9.60474 3.27951 9.76286 3.27875 9.82625C3.27731 9.9471 3.62826 10.5093 3.75997 10.5971C3.83284 10.6456 4.47461 10.2586 4.57968 10.1028C4.63206 10.0251 4.20451 9.31877 4.07447 9.26829C4.03272 9.25212 3.83694 9.34504 3.63934 9.47492ZM16.485 9.67602C16.4007 9.87962 16.4063 9.91947 16.5327 10.0152C16.7505 10.1801 16.9076 10.1501 17.0106 9.92395C17.0938 9.74123 17.085 9.70494 16.9278 9.58401C16.6806 9.39385 16.5945 9.41169 16.485 9.67602ZM18.6567 10.5137C18.4049 10.8129 18.4091 10.917 18.6804 11.1102C18.971 11.3171 19.0268 11.3096 19.221 11.0368C19.4133 10.7668 19.3882 10.6607 19.0803 10.4414L18.8534 10.2799L18.6567 10.5137ZM1.78236 11.3384C1.52373 11.4894 1.29007 11.6351 1.26304 11.6621C1.21051 11.7147 1.72307 12.6784 1.84294 12.7524C1.91885 12.7994 2.8585 12.3033 2.93829 12.1741C2.9912 12.0885 2.45889 11.1367 2.33326 11.0922C2.28885 11.0765 2.041 11.1872 1.78236 11.3384ZM4.09117 11.6658C3.89494 11.8014 3.734 11.9547 3.73363 12.0064C3.73233 12.1653 4.14332 12.7037 4.26828 12.7067C4.38328 12.7095 5.02338 12.2807 5.02338 12.2007C5.02338 12.1603 4.49253 11.4191 4.46353 11.4191C4.45495 11.4191 4.28741 11.5301 4.09117 11.6658ZM16.1102 11.7735C15.9192 12.0162 15.9318 12.0755 16.2092 12.2411C16.418 12.3657 16.425 12.3639 16.6069 12.1402L16.7919 11.9125L16.5822 11.7421C16.3178 11.5273 16.3031 11.5283 16.1102 11.7735ZM17.7478 13.3497C17.6384 13.4931 17.549 13.6451 17.549 13.6875C17.549 13.7769 18.0235 14.1546 18.1255 14.1465C18.1633 14.1434 18.2952 14.0198 18.4184 13.8716L18.6426 13.6023L18.3627 13.3457C18.2086 13.2046 18.052 13.0891 18.0146 13.0891C17.9772 13.0891 17.8572 13.2064 17.7478 13.3497ZM5.19017 13.6271C5.01496 13.756 4.87156 13.8785 4.87156 13.8994C4.87156 13.9813 5.3568 14.6074 5.42026 14.6074C5.52874 14.6074 6.08617 14.1346 6.08617 14.0426C6.08617 13.9431 5.64413 13.3928 5.56419 13.3928C5.53375 13.3928 5.36537 13.4982 5.19017 13.6271ZM14.9597 13.7081L14.7893 13.9474L15.0115 14.1252C15.2864 14.3452 15.3261 14.3459 15.5036 14.1329C15.6906 13.9088 15.6863 13.8317 15.4755 13.6337C15.241 13.4134 15.1613 13.425 14.9597 13.7081ZM2.98831 14.0786C2.72975 14.242 2.51826 14.3981 2.51826 14.4254C2.51826 14.5115 2.97024 15.2691 3.07197 15.3535C3.18903 15.4507 4.11243 14.9391 4.11243 14.777C4.11243 14.6668 3.63532 13.8908 3.526 13.8232C3.48881 13.8002 3.24679 13.9151 2.98831 14.0786ZM6.90071 15.0683C6.59281 15.322 6.59478 15.3495 6.95256 15.7784L7.13786 16.0003L7.41457 15.7893C7.56677 15.6732 7.70888 15.5322 7.73044 15.4761C7.77583 15.3579 7.40121 14.8351 7.27109 14.8351C7.22296 14.8351 7.05625 14.94 6.90071 15.0683ZM13.2732 15.0901L13.0788 15.3451L13.3251 15.5838L13.5713 15.8225L13.8332 15.5512L14.095 15.2801L13.8471 15.0576C13.7107 14.9353 13.5696 14.8351 13.5335 14.8351C13.4973 14.8351 13.3803 14.9498 13.2732 15.0901ZM15.9697 15.6928C15.8363 15.8304 15.7271 15.9775 15.7271 16.0195C15.7271 16.1175 16.2035 16.5811 16.3041 16.5811C16.4022 16.5811 16.8658 16.1048 16.8658 16.0041C16.8658 15.906 16.3894 15.4424 16.2888 15.4424C16.2467 15.4424 16.1032 15.5551 15.9697 15.6928ZM8.98915 15.8051C8.85312 15.9188 8.74206 16.0478 8.74244 16.0918C8.74282 16.1358 8.8598 16.2849 9.00244 16.4232L9.26175 16.6745L9.53383 16.467C9.86154 16.2171 9.87468 16.0681 9.59296 15.7982C9.33091 15.5472 9.29736 15.5476 8.98915 15.8051ZM11.2245 15.8072C11.1123 15.9243 11.0205 16.0505 11.0205 16.0877C11.0205 16.1872 11.4144 16.5811 11.5139 16.5811C11.6183 16.5811 12.0074 16.185 12.0074 16.0787C12.0074 15.981 11.6063 15.5943 11.505 15.5943C11.4629 15.5943 11.3367 15.6901 11.2245 15.8072ZM5.04138 16.2416C4.82267 16.3888 4.64382 16.5515 4.64382 16.6031C4.64382 16.7122 5.15586 17.4921 5.22752 17.4921C5.30176 17.4921 5.98847 17.0405 6.07766 16.933C6.13521 16.8637 6.08199 16.7198 5.88264 16.4058C5.73188 16.1682 5.57034 15.9738 5.52373 15.9738C5.47704 15.9738 5.26001 16.0943 5.04138 16.2416ZM13.5446 17.2363C13.3672 17.3839 13.2229 17.5445 13.224 17.5933C13.2262 17.6856 13.7217 18.2512 13.8004 18.2512C13.9214 18.2512 14.4366 17.7667 14.4366 17.6529C14.4366 17.5814 14.3085 17.398 14.1519 17.2454L13.8672 16.9679L13.5446 17.2363ZM7.69931 17.5727C7.48008 17.7409 7.30077 17.8981 7.30077 17.9219C7.30077 18.0377 7.85911 18.7067 7.95568 18.7067C8.10781 18.7067 8.73651 18.2353 8.74016 18.1185C8.7435 18.0113 8.22425 17.2637 8.14766 17.2656C8.12025 17.2662 7.91855 17.4045 7.69931 17.5727ZM10.6176 17.9665L10.2569 18.2892L10.5305 18.6308C10.6809 18.8187 10.8368 18.9842 10.8768 18.9985C10.9696 19.0319 11.6278 18.4958 11.6278 18.3868C11.6278 18.2896 11.1103 17.6439 11.0323 17.6439C11.0027 17.6439 10.8161 17.7891 10.6176 17.9665Z"/>
</mask>
<path fill-rule="evenodd" clip-rule="evenodd" d="M6.40766 1.25469C6.06256 1.41373 5.7624 1.59046 5.74054 1.64724C5.68588 1.7898 6.28369 3.06848 6.4053 3.06924C6.57018 3.07023 7.75086 2.50559 7.7892 2.40735C7.83725 2.2843 7.26251 1.04927 7.13528 1.00236C7.08017 0.982014 6.75276 1.09558 6.40766 1.25469ZM12.6906 1.58689C12.6906 1.80537 12.7235 1.85934 12.8802 1.89874C13.1816 1.97435 13.2979 1.88857 13.2979 1.59068C13.2979 1.32856 13.2912 1.32264 12.9942 1.32264C12.6981 1.32264 12.6906 1.32924 12.6906 1.58689ZM15.3145 2.87908C15.2521 3.21196 15.2542 3.21484 15.5927 3.2698C15.8426 3.31034 15.8594 3.29918 15.9067 3.06256C15.9651 2.7706 15.9198 2.70865 15.6018 2.64504C15.3796 2.60055 15.3645 2.61293 15.3145 2.87908ZM3.97958 3.00373C3.59318 3.18303 3.3533 3.33896 3.3533 3.41092C3.3533 3.5837 3.94983 4.73872 4.03902 4.73872C4.22197 4.73872 5.32704 4.12033 5.32704 4.01792C5.32704 3.86078 4.7813 2.77523 4.68519 2.74114C4.64154 2.72573 4.32407 2.84385 3.97958 3.00373ZM6.6959 3.75435C6.42587 3.87012 6.19229 4.00282 6.1768 4.0492C6.13672 4.16945 6.59326 5.11828 6.69112 5.11828C6.79572 5.11828 7.75625 4.68398 7.75625 4.63669C7.75625 4.54969 7.30859 3.61407 7.25105 3.58082C7.21575 3.5604 6.96592 3.63851 6.6959 3.75435ZM13.4136 4.04108C13.3917 4.06294 13.3738 4.17757 13.3738 4.29592C13.3738 4.48426 13.4021 4.51098 13.6015 4.51098C13.802 4.51098 13.8293 4.48471 13.8293 4.29212C13.8293 4.11942 13.7896 4.0656 13.6413 4.03728C13.5379 4.01747 13.4354 4.01921 13.4136 4.04108ZM17.3335 4.93207C17.2003 5.22441 17.2259 5.34238 17.4401 5.42383C17.75 5.54165 17.8324 5.51341 17.9211 5.2588C17.967 5.12731 18.0045 5.00859 18.0045 4.995C18.0045 4.95704 17.5654 4.73872 17.489 4.73872C17.4519 4.73872 17.3819 4.82571 17.3335 4.93207ZM4.96782 5.29577C4.74934 5.42778 4.56996 5.58287 4.56927 5.64041C4.56692 5.82283 5.02976 6.56063 5.14644 6.56063C5.27033 6.56063 6.08617 6.0593 6.08617 5.98316C6.08617 5.86041 5.53344 5.04313 5.45442 5.04905C5.40523 5.05277 5.18622 5.16375 4.96782 5.29577ZM2.27708 5.46088C1.99833 5.6045 1.74956 5.75557 1.72428 5.79649C1.66644 5.89009 2.26479 7.09202 2.36917 7.09202C2.52084 7.09202 3.51279 6.55311 3.55272 6.44896C3.60807 6.3048 3.04054 5.23625 2.89782 5.21591C2.83519 5.20702 2.55591 5.31725 2.27708 5.46088ZM15.042 5.61665C14.945 5.87187 14.935 5.85107 15.1987 5.943C15.4096 6.01656 15.4357 6.00699 15.5023 5.83163C15.6062 5.5585 15.5961 5.52115 15.4045 5.46976C15.1423 5.39954 15.1213 5.40804 15.042 5.61665ZM3.93927 7.28764C3.70045 7.43697 3.50513 7.58264 3.50513 7.61126C3.50513 7.7224 4.04525 8.45845 4.12678 8.45845C4.2821 8.45845 4.94747 7.98976 4.94747 7.8803C4.94747 7.76886 4.4841 7.01982 4.41373 7.01747C4.39156 7.01671 4.17802 7.13832 3.93927 7.28764ZM16.1133 7.5254C16.0327 7.70221 16.0384 7.74487 16.1535 7.82906C16.3713 7.98832 16.5412 7.94467 16.6236 7.70828C16.6914 7.51356 16.6794 7.48016 16.5136 7.40463C16.2504 7.28476 16.2185 7.2944 16.1133 7.5254ZM18.4662 7.65134C18.3793 7.79193 18.3081 7.92584 18.3081 7.94877C18.3081 7.99318 18.7915 8.30662 18.86 8.30662C18.8974 8.30662 19.2191 7.79938 19.2191 7.74047C19.2191 7.71253 18.6976 7.39567 18.6516 7.39567C18.6365 7.39567 18.553 7.51075 18.4662 7.65134ZM1.51241 8.3628C1.23062 8.51706 1 8.68809 1 8.74282C1 8.88652 1.42314 9.7035 1.55363 9.81183C1.64283 9.88584 1.76854 9.84826 2.20382 9.61749C2.50057 9.4602 2.74395 9.28522 2.7447 9.22866C2.74683 9.06196 2.20352 8.07873 2.1103 8.08056C2.06331 8.08147 1.7942 8.20847 1.51241 8.3628ZM3.63934 9.47492C3.44182 9.60474 3.27951 9.76286 3.27875 9.82625C3.27731 9.9471 3.62826 10.5093 3.75997 10.5971C3.83284 10.6456 4.47461 10.2586 4.57968 10.1028C4.63206 10.0251 4.20451 9.31877 4.07447 9.26829C4.03272 9.25212 3.83694 9.34504 3.63934 9.47492ZM16.485 9.67602C16.4007 9.87962 16.4063 9.91947 16.5327 10.0152C16.7505 10.1801 16.9076 10.1501 17.0106 9.92395C17.0938 9.74123 17.085 9.70494 16.9278 9.58401C16.6806 9.39385 16.5945 9.41169 16.485 9.67602ZM18.6567 10.5137C18.4049 10.8129 18.4091 10.917 18.6804 11.1102C18.971 11.3171 19.0268 11.3096 19.221 11.0368C19.4133 10.7668 19.3882 10.6607 19.0803 10.4414L18.8534 10.2799L18.6567 10.5137ZM1.78236 11.3384C1.52373 11.4894 1.29007 11.6351 1.26304 11.6621C1.21051 11.7147 1.72307 12.6784 1.84294 12.7524C1.91885 12.7994 2.8585 12.3033 2.93829 12.1741C2.9912 12.0885 2.45889 11.1367 2.33326 11.0922C2.28885 11.0765 2.041 11.1872 1.78236 11.3384ZM4.09117 11.6658C3.89494 11.8014 3.734 11.9547 3.73363 12.0064C3.73233 12.1653 4.14332 12.7037 4.26828 12.7067C4.38328 12.7095 5.02338 12.2807 5.02338 12.2007C5.02338 12.1603 4.49253 11.4191 4.46353 11.4191C4.45495 11.4191 4.28741 11.5301 4.09117 11.6658ZM16.1102 11.7735C15.9192 12.0162 15.9318 12.0755 16.2092 12.2411C16.418 12.3657 16.425 12.3639 16.6069 12.1402L16.7919 11.9125L16.5822 11.7421C16.3178 11.5273 16.3031 11.5283 16.1102 11.7735ZM17.7478 13.3497C17.6384 13.4931 17.549 13.6451 17.549 13.6875C17.549 13.7769 18.0235 14.1546 18.1255 14.1465C18.1633 14.1434 18.2952 14.0198 18.4184 13.8716L18.6426 13.6023L18.3627 13.3457C18.2086 13.2046 18.052 13.0891 18.0146 13.0891C17.9772 13.0891 17.8572 13.2064 17.7478 13.3497ZM5.19017 13.6271C5.01496 13.756 4.87156 13.8785 4.87156 13.8994C4.87156 13.9813 5.3568 14.6074 5.42026 14.6074C5.52874 14.6074 6.08617 14.1346 6.08617 14.0426C6.08617 13.9431 5.64413 13.3928 5.56419 13.3928C5.53375 13.3928 5.36537 13.4982 5.19017 13.6271ZM14.9597 13.7081L14.7893 13.9474L15.0115 14.1252C15.2864 14.3452 15.3261 14.3459 15.5036 14.1329C15.6906 13.9088 15.6863 13.8317 15.4755 13.6337C15.241 13.4134 15.1613 13.425 14.9597 13.7081ZM2.98831 14.0786C2.72975 14.242 2.51826 14.3981 2.51826 14.4254C2.51826 14.5115 2.97024 15.2691 3.07197 15.3535C3.18903 15.4507 4.11243 14.9391 4.11243 14.777C4.11243 14.6668 3.63532 13.8908 3.526 13.8232C3.48881 13.8002 3.24679 13.9151 2.98831 14.0786ZM6.90071 15.0683C6.59281 15.322 6.59478 15.3495 6.95256 15.7784L7.13786 16.0003L7.41457 15.7893C7.56677 15.6732 7.70888 15.5322 7.73044 15.4761C7.77583 15.3579 7.40121 14.8351 7.27109 14.8351C7.22296 14.8351 7.05625 14.94 6.90071 15.0683ZM13.2732 15.0901L13.0788 15.3451L13.3251 15.5838L13.5713 15.8225L13.8332 15.5512L14.095 15.2801L13.8471 15.0576C13.7107 14.9353 13.5696 14.8351 13.5335 14.8351C13.4973 14.8351 13.3803 14.9498 13.2732 15.0901ZM15.9697 15.6928C15.8363 15.8304 15.7271 15.9775 15.7271 16.0195C15.7271 16.1175 16.2035 16.5811 16.3041 16.5811C16.4022 16.5811 16.8658 16.1048 16.8658 16.0041C16.8658 15.906 16.3894 15.4424 16.2888 15.4424C16.2467 15.4424 16.1032 15.5551 15.9697 15.6928ZM8.98915 15.8051C8.85312 15.9188 8.74206 16.0478 8.74244 16.0918C8.74282 16.1358 8.8598 16.2849 9.00244 16.4232L9.26175 16.6745L9.53383 16.467C9.86154 16.2171 9.87468 16.0681 9.59296 15.7982C9.33091 15.5472 9.29736 15.5476 8.98915 15.8051ZM11.2245 15.8072C11.1123 15.9243 11.0205 16.0505 11.0205 16.0877C11.0205 16.1872 11.4144 16.5811 11.5139 16.5811C11.6183 16.5811 12.0074 16.185 12.0074 16.0787C12.0074 15.981 11.6063 15.5943 11.505 15.5943C11.4629 15.5943 11.3367 15.6901 11.2245 15.8072ZM5.04138 16.2416C4.82267 16.3888 4.64382 16.5515 4.64382 16.6031C4.64382 16.7122 5.15586 17.4921 5.22752 17.4921C5.30176 17.4921 5.98847 17.0405 6.07766 16.933C6.13521 16.8637 6.08199 16.7198 5.88264 16.4058C5.73188 16.1682 5.57034 15.9738 5.52373 15.9738C5.47704 15.9738 5.26001 16.0943 5.04138 16.2416ZM13.5446 17.2363C13.3672 17.3839 13.2229 17.5445 13.224 17.5933C13.2262 17.6856 13.7217 18.2512 13.8004 18.2512C13.9214 18.2512 14.4366 17.7667 14.4366 17.6529C14.4366 17.5814 14.3085 17.398 14.1519 17.2454L13.8672 16.9679L13.5446 17.2363ZM7.69931 17.5727C7.48008 17.7409 7.30077 17.8981 7.30077 17.9219C7.30077 18.0377 7.85911 18.7067 7.95568 18.7067C8.10781 18.7067 8.73651 18.2353 8.74016 18.1185C8.7435 18.0113 8.22425 17.2637 8.14766 17.2656C8.12025 17.2662 7.91855 17.4045 7.69931 17.5727ZM10.6176 17.9665L10.2569 18.2892L10.5305 18.6308C10.6809 18.8187 10.8368 18.9842 10.8768 18.9985C10.9696 19.0319 11.6278 18.4958 11.6278 18.3868C11.6278 18.2896 11.1103 17.6439 11.0323 17.6439C11.0027 17.6439 10.8161 17.7891 10.6176 17.9665Z" fill="currentColor"/>
<path fill-rule="evenodd" clip-rule="evenodd" d="M6.40766 1.25469C6.06256 1.41373 5.7624 1.59046 5.74054 1.64724C5.68588 1.7898 6.28369 3.06848 6.4053 3.06924C6.57018 3.07023 7.75086 2.50559 7.7892 2.40735C7.83725 2.2843 7.26251 1.04927 7.13528 1.00236C7.08017 0.982014 6.75276 1.09558 6.40766 1.25469ZM12.6906 1.58689C12.6906 1.80537 12.7235 1.85934 12.8802 1.89874C13.1816 1.97435 13.2979 1.88857 13.2979 1.59068C13.2979 1.32856 13.2912 1.32264 12.9942 1.32264C12.6981 1.32264 12.6906 1.32924 12.6906 1.58689ZM15.3145 2.87908C15.2521 3.21196 15.2542 3.21484 15.5927 3.2698C15.8426 3.31034 15.8594 3.29918 15.9067 3.06256C15.9651 2.7706 15.9198 2.70865 15.6018 2.64504C15.3796 2.60055 15.3645 2.61293 15.3145 2.87908ZM3.97958 3.00373C3.59318 3.18303 3.3533 3.33896 3.3533 3.41092C3.3533 3.5837 3.94983 4.73872 4.03902 4.73872C4.22197 4.73872 5.32704 4.12033 5.32704 4.01792C5.32704 3.86078 4.7813 2.77523 4.68519 2.74114C4.64154 2.72573 4.32407 2.84385 3.97958 3.00373ZM6.6959 3.75435C6.42587 3.87012 6.19229 4.00282 6.1768 4.0492C6.13672 4.16945 6.59326 5.11828 6.69112 5.11828C6.79572 5.11828 7.75625 4.68398 7.75625 4.63669C7.75625 4.54969 7.30859 3.61407 7.25105 3.58082C7.21575 3.5604 6.96592 3.63851 6.6959 3.75435ZM13.4136 4.04108C13.3917 4.06294 13.3738 4.17757 13.3738 4.29592C13.3738 4.48426 13.4021 4.51098 13.6015 4.51098C13.802 4.51098 13.8293 4.48471 13.8293 4.29212C13.8293 4.11942 13.7896 4.0656 13.6413 4.03728C13.5379 4.01747 13.4354 4.01921 13.4136 4.04108ZM17.3335 4.93207C17.2003 5.22441 17.2259 5.34238 17.4401 5.42383C17.75 5.54165 17.8324 5.51341 17.9211 5.2588C17.967 5.12731 18.0045 5.00859 18.0045 4.995C18.0045 4.95704 17.5654 4.73872 17.489 4.73872C17.4519 4.73872 17.3819 4.82571 17.3335 4.93207ZM4.96782 5.29577C4.74934 5.42778 4.56996 5.58287 4.56927 5.64041C4.56692 5.82283 5.02976 6.56063 5.14644 6.56063C5.27033 6.56063 6.08617 6.0593 6.08617 5.98316C6.08617 5.86041 5.53344 5.04313 5.45442 5.04905C5.40523 5.05277 5.18622 5.16375 4.96782 5.29577ZM2.27708 5.46088C1.99833 5.6045 1.74956 5.75557 1.72428 5.79649C1.66644 5.89009 2.26479 7.09202 2.36917 7.09202C2.52084 7.09202 3.51279 6.55311 3.55272 6.44896C3.60807 6.3048 3.04054 5.23625 2.89782 5.21591C2.83519 5.20702 2.55591 5.31725 2.27708 5.46088ZM15.042 5.61665C14.945 5.87187 14.935 5.85107 15.1987 5.943C15.4096 6.01656 15.4357 6.00699 15.5023 5.83163C15.6062 5.5585 15.5961 5.52115 15.4045 5.46976C15.1423 5.39954 15.1213 5.40804 15.042 5.61665ZM3.93927 7.28764C3.70045 7.43697 3.50513 7.58264 3.50513 7.61126C3.50513 7.7224 4.04525 8.45845 4.12678 8.45845C4.2821 8.45845 4.94747 7.98976 4.94747 7.8803C4.94747 7.76886 4.4841 7.01982 4.41373 7.01747C4.39156 7.01671 4.17802 7.13832 3.93927 7.28764ZM16.1133 7.5254C16.0327 7.70221 16.0384 7.74487 16.1535 7.82906C16.3713 7.98832 16.5412 7.94467 16.6236 7.70828C16.6914 7.51356 16.6794 7.48016 16.5136 7.40463C16.2504 7.28476 16.2185 7.2944 16.1133 7.5254ZM18.4662 7.65134C18.3793 7.79193 18.3081 7.92584 18.3081 7.94877C18.3081 7.99318 18.7915 8.30662 18.86 8.30662C18.8974 8.30662 19.2191 7.79938 19.2191 7.74047C19.2191 7.71253 18.6976 7.39567 18.6516 7.39567C18.6365 7.39567 18.553 7.51075 18.4662 7.65134ZM1.51241 8.3628C1.23062 8.51706 1 8.68809 1 8.74282C1 8.88652 1.42314 9.7035 1.55363 9.81183C1.64283 9.88584 1.76854 9.84826 2.20382 9.61749C2.50057 9.4602 2.74395 9.28522 2.7447 9.22866C2.74683 9.06196 2.20352 8.07873 2.1103 8.08056C2.06331 8.08147 1.7942 8.20847 1.51241 8.3628ZM3.63934 9.47492C3.44182 9.60474 3.27951 9.76286 3.27875 9.82625C3.27731 9.9471 3.62826 10.5093 3.75997 10.5971C3.83284 10.6456 4.47461 10.2586 4.57968 10.1028C4.63206 10.0251 4.20451 9.31877 4.07447 9.26829C4.03272 9.25212 3.83694 9.34504 3.63934 9.47492ZM16.485 9.67602C16.4007 9.87962 16.4063 9.91947 16.5327 10.0152C16.7505 10.1801 16.9076 10.1501 17.0106 9.92395C17.0938 9.74123 17.085 9.70494 16.9278 9.58401C16.6806 9.39385 16.5945 9.41169 16.485 9.67602ZM18.6567 10.5137C18.4049 10.8129 18.4091 10.917 18.6804 11.1102C18.971 11.3171 19.0268 11.3096 19.221 11.0368C19.4133 10.7668 19.3882 10.6607 19.0803 10.4414L18.8534 10.2799L18.6567 10.5137ZM1.78236 11.3384C1.52373 11.4894 1.29007 11.6351 1.26304 11.6621C1.21051 11.7147 1.72307 12.6784 1.84294 12.7524C1.91885 12.7994 2.8585 12.3033 2.93829 12.1741C2.9912 12.0885 2.45889 11.1367 2.33326 11.0922C2.28885 11.0765 2.041 11.1872 1.78236 11.3384ZM4.09117 11.6658C3.89494 11.8014 3.734 11.9547 3.73363 12.0064C3.73233 12.1653 4.14332 12.7037 4.26828 12.7067C4.38328 12.7095 5.02338 12.2807 5.02338 12.2007C5.02338 12.1603 4.49253 11.4191 4.46353 11.4191C4.45495 11.4191 4.28741 11.5301 4.09117 11.6658ZM16.1102 11.7735C15.9192 12.0162 15.9318 12.0755 16.2092 12.2411C16.418 12.3657 16.425 12.3639 16.6069 12.1402L16.7919 11.9125L16.5822 11.7421C16.3178 11.5273 16.3031 11.5283 16.1102 11.7735ZM17.7478 13.3497C17.6384 13.4931 17.549 13.6451 17.549 13.6875C17.549 13.7769 18.0235 14.1546 18.1255 14.1465C18.1633 14.1434 18.2952 14.0198 18.4184 13.8716L18.6426 13.6023L18.3627 13.3457C18.2086 13.2046 18.052 13.0891 18.0146 13.0891C17.9772 13.0891 17.8572 13.2064 17.7478 13.3497ZM5.19017 13.6271C5.01496 13.756 4.87156 13.8785 4.87156 13.8994C4.87156 13.9813 5.3568 14.6074 5.42026 14.6074C5.52874 14.6074 6.08617 14.1346 6.08617 14.0426C6.08617 13.9431 5.64413 13.3928 5.56419 13.3928C5.53375 13.3928 5.36537 13.4982 5.19017 13.6271ZM14.9597 13.7081L14.7893 13.9474L15.0115 14.1252C15.2864 14.3452 15.3261 14.3459 15.5036 14.1329C15.6906 13.9088 15.6863 13.8317 15.4755 13.6337C15.241 13.4134 15.1613 13.425 14.9597 13.7081ZM2.98831 14.0786C2.72975 14.242 2.51826 14.3981 2.51826 14.4254C2.51826 14.5115 2.97024 15.2691 3.07197 15.3535C3.18903 15.4507 4.11243 14.9391 4.11243 14.777C4.11243 14.6668 3.63532 13.8908 3.526 13.8232C3.48881 13.8002 3.24679 13.9151 2.98831 14.0786ZM6.90071 15.0683C6.59281 15.322 6.59478 15.3495 6.95256 15.7784L7.13786 16.0003L7.41457 15.7893C7.56677 15.6732 7.70888 15.5322 7.73044 15.4761C7.77583 15.3579 7.40121 14.8351 7.27109 14.8351C7.22296 14.8351 7.05625 14.94 6.90071 15.0683ZM13.2732 15.0901L13.0788 15.3451L13.3251 15.5838L13.5713 15.8225L13.8332 15.5512L14.095 15.2801L13.8471 15.0576C13.7107 14.9353 13.5696 14.8351 13.5335 14.8351C13.4973 14.8351 13.3803 14.9498 13.2732 15.0901ZM15.9697 15.6928C15.8363 15.8304 15.7271 15.9775 15.7271 16.0195C15.7271 16.1175 16.2035 16.5811 16.3041 16.5811C16.4022 16.5811 16.8658 16.1048 16.8658 16.0041C16.8658 15.906 16.3894 15.4424 16.2888 15.4424C16.2467 15.4424 16.1032 15.5551 15.9697 15.6928ZM8.98915 15.8051C8.85312 15.9188 8.74206 16.0478 8.74244 16.0918C8.74282 16.1358 8.8598 16.2849 9.00244 16.4232L9.26175 16.6745L9.53383 16.467C9.86154 16.2171 9.87468 16.0681 9.59296 15.7982C9.33091 15.5472 9.29736 15.5476 8.98915 15.8051ZM11.2245 15.8072C11.1123 15.9243 11.0205 16.0505 11.0205 16.0877C11.0205 16.1872 11.4144 16.5811 11.5139 16.5811C11.6183 16.5811 12.0074 16.185 12.0074 16.0787C12.0074 15.981 11.6063 15.5943 11.505 15.5943C11.4629 15.5943 11.3367 15.6901 11.2245 15.8072ZM5.04138 16.2416C4.82267 16.3888 4.64382 16.5515 4.64382 16.6031C4.64382 16.7122 5.15586 17.4921 5.22752 17.4921C5.30176 17.4921 5.98847 17.0405 6.07766 16.933C6.13521 16.8637 6.08199 16.7198 5.88264 16.4058C5.73188 16.1682 5.57034 15.9738 5.52373 15.9738C5.47704 15.9738 5.26001 16.0943 5.04138 16.2416ZM13.5446 17.2363C13.3672 17.3839 13.2229 17.5445 13.224 17.5933C13.2262 17.6856 13.7217 18.2512 13.8004 18.2512C13.9214 18.2512 14.4366 17.7667 14.4366 17.6529C14.4366 17.5814 14.3085 17.398 14.1519 17.2454L13.8672 16.9679L13.5446 17.2363ZM7.69931 17.5727C7.48008 17.7409 7.30077 17.8981 7.30077 17.9219C7.30077 18.0377 7.85911 18.7067 7.95568 18.7067C8.10781 18.7067 8.73651 18.2353 8.74016 18.1185C8.7435 18.0113 8.22425 17.2637 8.14766 17.2656C8.12025 17.2662 7.91855 17.4045 7.69931 17.5727ZM10.6176 17.9665L10.2569 18.2892L10.5305 18.6308C10.6809 18.8187 10.8368 18.9842 10.8768 18.9985C10.9696 19.0319 11.6278 18.4958 11.6278 18.3868C11.6278 18.2896 11.1103 17.6439 11.0323 17.6439C11.0027 17.6439 10.8161 17.7891 10.6176 17.9665Z" stroke="currentColor" stroke-width="0.4" mask="url(#path-1-outside-1_559_1990)"/>
</svg>
