<svg width="20" height="20" viewBox="0 0 20 20" fill="none" xmlns="http://www.w3.org/2000/svg">
<path d="M16.6667 12.9167C15.6667 12.9167 14.5833 12.75 13.6667 12.4167H13.4167C13.1667 12.4167 13 12.5 12.8333 12.6667L11 14.5C8.66667 13.25 6.66667 11.3333 5.5 9L7.33333 7.16667C7.58333 6.91667 7.66667 6.58333 7.5 6.33333C7.25 5.41667 7.08333 4.33333 7.08333 3.33333C7.08333 2.91667 6.66667 2.5 6.25 2.5H3.33333C2.91667 2.5 2.5 2.91667 2.5 3.33333C2.5 11.1667 8.83333 17.5 16.6667 17.5C17.0833 17.5 17.5 17.0833 17.5 16.6667V13.75C17.5 13.3333 17.0833 12.9167 16.6667 12.9167ZM4.16667 4.16667H5.41667C5.5 4.91667 5.66667 5.66667 5.83333 6.33333L4.83333 7.33333C4.5 6.33333 4.25 5.25 4.16667 4.16667ZM15.8333 15.8333C14.75 15.75 13.6667 15.5 12.6667 15.1667L13.6667 14.1667C14.3333 14.3333 15.0833 14.5 15.8333 14.5V15.8333ZM12.5 3.33333C12.5 3.83333 12.1667 4.16667 11.6667 4.16667C11.1667 4.16667 10.8333 3.83333 10.8333 3.33333C10.8333 2.83333 11.1667 2.5 11.6667 2.5C12.1667 2.5 12.5 2.83333 12.5 3.33333ZM15 3.33333C15 3.83333 14.6667 4.16667 14.1667 4.16667C13.6667 4.16667 13.3333 3.83333 13.3333 3.33333C13.3333 2.83333 13.6667 2.5 14.1667 2.5C14.6667 2.5 15 2.83333 15 3.33333ZM17.5 3.33333C17.5 3.83333 17.1667 4.16667 16.6667 4.16667C16.1667 4.16667 15.8333 3.83333 15.8333 3.33333C15.8333 2.83333 16.1667 2.5 16.6667 2.5C17.1667 2.5 17.5 2.83333 17.5 3.33333ZM12.5 5.83333C12.5 6.33333 12.1667 6.66667 11.6667 6.66667C11.1667 6.66667 10.8333 6.33333 10.8333 5.83333C10.8333 5.33333 11.1667 5 11.6667 5C12.1667 5 12.5 5.33333 12.5 5.83333ZM15 5.83333C15 6.33333 14.6667 6.66667 14.1667 6.66667C13.6667 6.66667 13.3333 6.33333 13.3333 5.83333C13.3333 5.33333 13.6667 5 14.1667 5C14.6667 5 15 5.33333 15 5.83333ZM17.5 5.83333C17.5 6.33333 17.1667 6.66667 16.6667 6.66667C16.1667 6.66667 15.8333 6.33333 15.8333 5.83333C15.8333 5.33333 16.1667 5 16.6667 5C17.1667 5 17.5 5.33333 17.5 5.83333ZM12.5 8.33333C12.5 8.83333 12.1667 9.16667 11.6667 9.16667C11.1667 9.16667 10.8333 8.83333 10.8333 8.33333C10.8333 7.83333 11.1667 7.5 11.6667 7.5C12.1667 7.5 12.5 7.83333 12.5 8.33333ZM15 8.33333C15 8.83333 14.6667 9.16667 14.1667 9.16667C13.6667 9.16667 13.3333 8.83333 13.3333 8.33333C13.3333 7.83333 13.6667 7.5 14.1667 7.5C14.6667 7.5 15 7.83333 15 8.33333ZM17.5 8.33333C17.5 8.83333 17.1667 9.16667 16.6667 9.16667C16.1667 9.16667 15.8333 8.83333 15.8333 8.33333C15.8333 7.83333 16.1667 7.5 16.6667 7.5C17.1667 7.5 17.5 7.83333 17.5 8.33333Z" fill="currentColor"/>
</svg>
