<svg width="20" height="20" viewBox="0 0 20 20" fill="none" xmlns="http://www.w3.org/2000/svg">
<path d="M3.33317 4.16634C3.33317 4.16467 3.33067 4.15051 3.36234 4.09884C3.39817 4.04051 3.47067 3.95384 3.60484 3.84801C3.87984 3.63134 4.32984 3.39884 4.95984 3.18967C6.2115 2.77134 7.99317 2.49967 9.99984 2.49967C12.0065 2.49967 13.7882 2.77217 15.0398 3.18884C15.6698 3.39884 16.1198 3.63051 16.3948 3.84717C16.5298 3.95384 16.6015 4.04051 16.6365 4.09884C16.6698 4.15134 16.6665 4.16634 16.6665 4.16634C16.6665 4.16884 16.669 4.18301 16.6373 4.23384C16.6015 4.29217 16.529 4.37884 16.3948 4.48467C16.1198 4.70134 15.6698 4.93384 15.0398 5.14301C13.7882 5.56134 12.0065 5.83301 9.99984 5.83301C7.99317 5.83301 6.2115 5.56051 4.95984 5.14384C4.32984 4.93384 3.87984 4.70217 3.60484 4.48551C3.51016 4.41643 3.42836 4.33124 3.36317 4.23384C3.33067 4.18384 3.33317 4.16884 3.33317 4.16634ZM16.6665 6.27217V9.99967L16.664 10.0122C16.6574 10.0315 16.6484 10.05 16.6373 10.0672C16.6015 10.1255 16.529 10.2122 16.3948 10.318C16.1198 10.5347 15.6698 10.7672 15.0398 10.9763C13.7882 11.3938 12.0065 11.6663 9.99984 11.6663C7.99317 11.6663 6.2115 11.3938 4.95984 10.9772C4.32984 10.7672 3.87984 10.5355 3.60484 10.3188C3.51016 10.2498 3.42836 10.1646 3.36317 10.0672C3.35178 10.05 3.34254 10.0316 3.33567 10.0122L3.33317 9.99967V6.27217C3.6881 6.45009 4.05578 6.60135 4.43317 6.72467C5.89567 7.21217 7.864 7.49967 9.99984 7.49967C12.1357 7.49967 14.104 7.21217 15.5665 6.72467C15.944 6.60164 16.3117 6.45038 16.6665 6.27217ZM16.6665 12.1055V15.833L16.664 15.8455C16.6574 15.8649 16.6484 15.8833 16.6373 15.9005C16.6015 15.9588 16.529 16.0455 16.3948 16.1513C16.1198 16.368 15.6698 16.6005 15.0398 16.8097C13.7882 17.2272 12.0065 17.4997 9.99984 17.4997C7.99317 17.4997 6.2115 17.2272 4.95984 16.8105C4.32984 16.6005 3.87984 16.3688 3.60484 16.1522C3.51016 16.0831 3.42836 15.9979 3.36317 15.9005C3.35178 15.8834 3.34254 15.8649 3.33567 15.8455L3.33317 15.833V12.1055C3.68797 12.2837 4.05568 12.435 4.43317 12.558C5.89567 13.0455 7.864 13.333 9.99984 13.333C12.1357 13.333 14.104 13.0455 15.5665 12.558C15.944 12.435 16.3117 12.2837 16.6665 12.1055ZM1.6665 15.833C1.6665 16.543 2.099 17.0863 2.57317 17.4605C3.05734 17.8422 3.7065 18.1488 4.43317 18.3913C5.89567 18.8788 7.864 19.1663 9.99984 19.1663C12.1357 19.1663 14.104 18.8788 15.5665 18.3913C16.294 18.1497 16.9423 17.8413 17.4265 17.4605C17.9015 17.0863 18.3332 16.543 18.3332 15.833V4.16634C18.3332 3.45634 17.9007 2.91301 17.4265 2.53884C16.9423 2.15717 16.2932 1.85051 15.5665 1.60801C14.104 1.12051 12.1357 0.833008 9.99984 0.833008C7.864 0.833008 5.89567 1.12051 4.43317 1.60801C3.70567 1.84967 3.05734 2.15801 2.57317 2.53884C2.09817 2.91301 1.6665 3.45634 1.6665 4.16634V15.833Z" fill="currentColor"/>
</svg>
