<svg width="30" height="30" viewBox="0 0 30 30" fill="none" xmlns="http://www.w3.org/2000/svg">
<rect x="0.5" y="0.5" width="29" height="29" rx="14.5" stroke="currentColor"/>
<path fill-rule="evenodd" clip-rule="evenodd" d="M9.01428 10.1714C7.62319 10.7262 7.0076 12.4646 7.79332 13.6191C8.58739 14.7858 9.6105 15.1163 10.7995 14.5903C11.7251 14.1809 12.1632 13.4951 12.1639 12.4547C12.1652 10.7681 10.5161 9.57262 9.01428 10.1714ZM16.7312 10.3489C15.7361 11.0261 15.557 11.4306 15.4979 13.1322L15.4445 14.6726L17.3882 14.7638C18.5075 14.8164 19.3953 14.7931 19.4815 14.7088C19.5755 14.617 19.5629 14.5626 19.4473 14.5626C19.3463 14.5626 19.0178 14.3169 18.7175 14.0165C17.9671 13.2661 17.8234 12.3343 18.305 11.3394C18.4954 10.9462 18.7156 10.6246 18.7945 10.6246C19.096 10.6246 18.921 10.1841 18.5836 10.0937C17.8949 9.90925 17.2458 9.99856 16.7312 10.3489ZM19.5288 10.103C19.1562 10.2003 19.1814 10.3448 19.6472 10.7822C20.162 11.266 20.3539 12.0022 20.3548 13.4993C20.3558 14.7083 20.3597 14.7201 20.7647 14.7201C21.8223 14.7201 22.7792 13.5841 22.7792 12.3285C22.7792 10.7288 21.2198 9.66115 19.5288 10.103ZM6.42397 16.0155C6.22077 16.3055 6.17871 16.9376 6.17871 19.7072V23.0488L6.69066 23.0983L7.20261 23.1476V26.5737V30L8.26589 29.9998C8.85061 29.9998 9.32916 29.9731 9.32916 29.9403C9.32916 29.9075 9.22284 29.6264 9.09288 29.3153C8.37914 27.6072 9.36114 25.1524 11.7314 22.7195L12.9522 21.4662V18.8132C12.9522 16.6115 12.9101 16.1183 12.7047 15.9127C12.4976 15.7058 11.9841 15.6653 9.56309 15.6653C6.75115 15.6653 6.66215 15.6752 6.42397 16.0155ZM14.3001 16.0155C13.9759 16.4781 13.931 20.9417 14.2517 20.8073C15.8846 20.1232 17.8567 20.0695 19.0409 20.6765C19.8542 21.0934 20.5873 21.9656 20.9027 22.8912C21.1845 23.7182 21.2149 25.2463 20.9674 26.1379C20.6823 27.1647 19.9309 28.6272 19.324 29.3362L18.7559 29.9998H20.816H22.8761V26.5343V23.0688H23.3487H23.8212V19.6278C23.8212 16.4942 23.7956 16.1634 23.5331 15.926C23.2798 15.6966 22.7217 15.6653 18.8952 15.6653C14.5786 15.6653 14.5433 15.668 14.3001 16.0155Z" fill="white"/>
</svg>
