<svg width="18" height="18" viewBox="0 0 18 18" fill="none" xmlns="http://www.w3.org/2000/svg">
<path fill-rule="evenodd" clip-rule="evenodd" d="M13.2725 1.05376C13.1001 0.778309 12.8461 0.563457 12.5459 0.439112C12.2457 0.314767 11.9142 0.287118 11.5975 0.360012L9.35001 0.876262C9.11967 0.929201 8.88034 0.929201 8.65001 0.876262L6.4025 0.360012C6.08584 0.287118 5.75432 0.314767 5.4541 0.439112C5.15388 0.563457 4.8999 0.778309 4.7275 1.05376L3.50251 3.00876C3.37751 3.20876 3.20875 3.37751 3.00875 3.50376L1.05376 4.72876C0.778778 4.901 0.56424 5.15457 0.439922 5.45428C0.315605 5.75398 0.287673 6.08496 0.360005 6.40126L0.876255 8.65126C0.929003 8.88119 0.929003 9.12008 0.876255 9.35001L0.360005 11.5988C0.287392 11.9152 0.315183 12.2465 0.439514 12.5465C0.563845 12.8464 0.77854 13.1002 1.05376 13.2725L3.00875 14.4975C3.20875 14.6225 3.37751 14.7913 3.50376 14.9913L4.72876 16.9463C5.08126 17.51 5.75376 17.7888 6.4025 17.64L8.65001 17.1238C8.88034 17.0708 9.11967 17.0708 9.35001 17.1238L11.5988 17.64C11.9152 17.7126 12.2465 17.6848 12.5465 17.5605C12.8464 17.4362 13.1002 17.2215 13.2725 16.9463L14.4975 14.9913C14.6225 14.7913 14.7913 14.6225 14.9913 14.4975L16.9475 13.2725C17.2227 13.0999 17.4373 12.8459 17.5614 12.5457C17.6856 12.2455 17.713 11.9141 17.64 11.5975L17.125 9.35001C17.0721 9.11968 17.0721 8.88034 17.125 8.65001L17.6413 6.40126C17.714 6.08491 17.6864 5.75375 17.5623 5.4538C17.4382 5.15385 17.2237 4.9 16.9488 4.72751L14.9925 3.50251C14.7928 3.37728 14.624 3.20848 14.4988 3.00876L13.2725 1.05376ZM12.6438 6.21251C12.7211 6.07034 12.7402 5.90373 12.6972 5.74773C12.6542 5.59172 12.5523 5.45849 12.413 5.37607C12.2738 5.29364 12.108 5.26845 11.9505 5.30578C11.793 5.34312 11.6562 5.44008 11.5688 5.57626L8.3 11.1088L6.32626 9.21876C6.2677 9.15864 6.19764 9.11092 6.12024 9.07846C6.04285 9.046 5.95971 9.02946 5.87579 9.02983C5.79186 9.0302 5.70887 9.04746 5.63176 9.08059C5.55466 9.11373 5.48501 9.16205 5.42698 9.22268C5.36896 9.28331 5.32373 9.35501 5.29401 9.4335C5.26429 9.51198 5.25068 9.59565 5.254 9.67951C5.25731 9.76337 5.27748 9.8457 5.31331 9.9216C5.34913 9.9975 5.39987 10.0654 5.46251 10.1213L8.00501 12.5575C8.07305 12.6226 8.15492 12.6714 8.2445 12.7004C8.33407 12.7294 8.42904 12.7378 8.52231 12.7249C8.61558 12.7121 8.70473 12.6783 8.78312 12.6262C8.86151 12.574 8.9271 12.5048 8.975 12.4238L12.6438 6.21251Z" fill="#5193FF"/>
</svg>
