<svg width="19" height="20" viewBox="0 0 19 20" fill="none" xmlns="http://www.w3.org/2000/svg">
<path fill-rule="evenodd" clip-rule="evenodd" d="M1.47929 0.121573C1.00654 0.267163 0.453512 0.763625 0.202152 1.26791L0 1.67362L0.00172106 8.60132C0.00336394 15.3923 0.00657154 15.536 0.162097 15.879C0.418073 16.4432 0.670998 16.7129 1.18491 16.9697L1.66783 17.2111H4.574H7.4801L7.85984 17.7283C8.55117 18.6697 9.64369 19.4221 10.8743 19.804C11.7163 20.0654 13.1632 20.0653 14.0008 19.8039C15.9512 19.1951 17.3593 17.7967 17.9533 15.8783C18.1578 15.2179 18.2001 13.7677 18.0364 13.0318C17.6206 11.163 16.1133 9.50107 14.2578 8.86567L13.6125 8.64466L13.6124 6.68487V4.72499L11.6142 2.61679C10.5151 1.45723 9.49473 0.394134 9.34656 0.254255L9.07721 0L5.45787 0.00547623C2.57173 0.009779 1.7657 0.033327 1.47929 0.121573ZM1.58209 0.990498C1.24178 1.15823 0.961631 1.50237 0.860867 1.87632C0.805948 2.08043 0.785921 4.36888 0.800159 8.81583L0.821438 15.4509L1.01702 15.7406C1.12459 15.9 1.35342 16.1112 1.52553 16.21C1.8322 16.3861 1.89079 16.3901 4.43968 16.4131C5.87039 16.426 7.0409 16.4063 7.0409 16.3693C7.0409 16.3324 6.9658 16.0052 6.87403 15.6424C6.73134 15.0779 6.71295 14.8328 6.74683 13.9454L6.78641 12.9083H4.95961H3.13289L3.00474 12.7127C2.88607 12.5316 2.88607 12.5028 3.00474 12.3216L3.13289 12.126H5.12468H7.11647L7.3234 11.7153C7.43722 11.4893 7.59627 11.2111 7.67677 11.0969C7.75735 10.9827 7.82322 10.8683 7.82322 10.8427C7.82322 10.817 6.76787 10.796 5.47806 10.796H3.13289L3.00474 10.6005C2.88607 10.4193 2.88607 10.3905 3.00474 10.2093L3.13289 10.0137H5.83753H8.54225L9.18689 9.58478C10.1535 8.94163 11.389 8.5385 12.4194 8.53005L12.7519 8.52731V6.93098V5.33473L11.3241 5.30634C9.75438 5.27512 9.56632 5.22873 9.08042 4.7537C8.59052 4.27477 8.56885 4.18206 8.54108 2.44476L8.51581 0.860555L5.1771 0.862354C2.26381 0.863919 1.80576 0.880191 1.58209 0.990498ZM9.39021 2.68063L9.38787 3.83565L9.6555 4.12792L9.92305 4.42012L11.0305 4.4457C12.085 4.47003 12.134 4.4644 12.0543 4.32835C12.0082 4.24973 11.3905 3.58695 10.6815 2.85548L9.39256 1.52553L9.39021 2.68063ZM3.00819 8.09179C2.85501 8.32555 2.95874 8.57433 3.25649 8.68753C3.47789 8.77171 7.36556 8.77578 7.66605 8.69215C7.94464 8.61462 8.05323 8.26883 7.86445 8.06027C7.72621 7.90756 7.63281 7.90145 5.42681 7.90145H3.13289L3.00819 8.09179ZM11.6566 9.43645C10.6106 9.63727 9.77652 10.0849 8.98771 10.8689C7.99338 11.8571 7.55614 12.9163 7.56451 14.3165C7.56842 14.9828 7.60855 15.2593 7.77707 15.7806C8.29277 17.3763 9.68265 18.6715 11.2847 19.0492C11.9148 19.1978 12.9677 19.1967 13.6035 19.0468C14.3176 18.8785 15.2556 18.3642 15.7931 17.8465C16.7979 16.8784 17.3011 15.7194 17.3086 14.3556C17.3165 12.9316 16.8834 11.871 15.8846 10.8689C14.9041 9.88519 13.9773 9.47392 12.6345 9.42651C12.2042 9.41134 11.7642 9.4158 11.6566 9.43645ZM12.1416 11.2029C12.0727 11.2718 12.0478 11.932 12.0478 13.6861V16.0755L11.1026 15.0786C10.0876 14.0082 9.89958 13.9033 9.65792 14.2721C9.48159 14.5413 9.5344 14.6177 10.9461 16.1371C12.1263 17.4075 12.3817 17.6115 12.6171 17.4724C12.6784 17.4362 13.2988 16.7935 13.9958 16.044C15.1127 14.8431 15.2604 14.6536 15.2397 14.4482C15.21 14.1535 15.0168 14.0222 14.763 14.1239C14.6598 14.1653 14.1914 14.6153 13.7222 15.124L12.8692 16.0489L12.8485 13.6834C12.8345 12.0972 12.7992 11.2834 12.7411 11.2133C12.6333 11.0835 12.2674 11.0771 12.1416 11.2029Z" fill="currentColor"/>
</svg>
