<svg width="42" height="42" viewBox="0 0 42 42" fill="none" xmlns="http://www.w3.org/2000/svg">
<rect width="42" height="42" rx="10" fill="#FF3D36"/>
<path d="M27.1872 29.25H14.8115C14.6292 29.25 14.4543 29.1776 14.3254 29.0486C14.1965 28.9197 14.124 28.7448 14.124 28.5625V13.4375C14.124 13.2552 14.1965 13.0803 14.3254 12.9514C14.4543 12.8224 14.6292 12.75 14.8115 12.75H23.0622L27.8747 17.5625V28.5625C27.8747 28.6528 27.8569 28.7422 27.8224 28.8256C27.7878 28.909 27.7372 28.9848 27.6733 29.0486C27.6095 29.1125 27.5337 29.1631 27.4503 29.1977C27.3669 29.2322 27.2775 29.25 27.1872 29.25Z" stroke="white" stroke-width="1.4" stroke-linecap="round" stroke-linejoin="round"/>
<path d="M23.0625 12.75V17.5625H27.8757" stroke="white" stroke-width="1.4" stroke-linecap="round" stroke-linejoin="round"/>
<path d="M18.25 21.6875H23.75" stroke="white" stroke-width="1.4" stroke-linecap="round" stroke-linejoin="round"/>
<path d="M18.25 24.4375H23.75" stroke="white" stroke-width="1.4" stroke-linecap="round" stroke-linejoin="round"/>
</svg>
