<svg width="48" height="44" viewBox="0 0 48 44" fill="none" xmlns="http://www.w3.org/2000/svg">
<path fill-rule="evenodd" clip-rule="evenodd" d="M22.6777 1.28707C20.9412 2.47769 20.9339 4.75539 22.6634 5.83477C23.1961 6.16734 23.1981 6.17352 23.1037 7.21766C22.9251 9.18984 22.8942 9.25899 22.192 9.25899C21.3183 9.25899 19.6653 9.81439 18.9983 10.332C18.5744 10.6611 18.1199 10.8091 17.1562 10.932C12.4594 11.5312 9.60045 12.7206 7.33234 15.0192C5.94274 16.4275 5.2092 17.6261 4.5341 19.5916C4.20509 20.5496 4.09969 20.6907 3.57646 20.8738C1.49551 21.6016 0.63916 23.4749 0.63916 27.2988C0.63916 31.1306 1.49469 32.9957 3.58828 33.728C4.11562 33.9126 4.22085 34.046 4.46121 34.8361C5.31345 37.639 7.4783 40.3025 9.96673 41.6101C13.1797 43.2985 17.3106 43.9977 24.086 44C30.6677 44.0023 34.6623 43.3225 37.9726 41.637C40.4973 40.3513 42.6789 37.6896 43.5466 34.8361C43.7869 34.046 43.8922 33.9126 44.4195 33.728C46.5535 32.9817 47.3811 31.1253 47.3604 27.1318C47.3399 23.1607 46.4757 21.5075 44.0132 20.7285C43.8653 20.6815 43.6978 20.3792 43.6369 20.0491C43.5766 19.7219 43.1918 18.7725 42.7819 17.9393C40.8304 13.9732 37.3599 11.8671 31.3771 11.018C29.9177 10.8109 29.4523 10.6756 29.0043 10.3279C28.3408 9.81322 26.6866 9.25899 25.813 9.25899C25.095 9.25899 25.0697 9.20538 24.9108 7.33809L24.8112 6.16884L25.3454 5.83477C27.0739 4.75405 27.0661 2.47736 25.3301 1.28707C24.9491 1.02565 24.5353 0.907227 24.0039 0.907227C23.4725 0.907227 23.0587 1.02565 22.6777 1.28707ZM19.1607 15.7966C10.6904 16.5417 8.46139 18.9828 8.50506 27.4658C8.54282 34.8111 10.2422 37.2626 16.0756 38.3873C18.3949 38.8344 22.0947 39.0449 25.7278 38.9365C34.6823 38.6694 37.8662 37.1427 39.0227 32.5609C39.4637 30.8139 39.6452 28.6461 39.5476 26.2966C39.2297 18.6547 36.9713 16.4956 28.551 15.7841C26.1341 15.5798 21.5565 15.586 19.1607 15.7966ZM16.3393 24.364C15.4928 24.7477 15.2204 25.4623 15.2204 27.2988C15.2204 29.18 15.492 29.8596 16.3976 30.2445C17.3953 30.6688 18.3339 30.2841 18.8686 29.2317C19.2089 28.5621 19.2089 26.0355 18.8686 25.3659C18.3372 24.3202 17.3225 23.9183 16.3393 24.364ZM30.3247 24.2447C29.8177 24.3695 29.2873 24.9478 29.0709 25.6113C28.7976 26.4496 28.8419 28.647 29.144 29.2414C29.6739 30.2837 30.6161 30.6671 31.6102 30.2445C32.5158 29.8596 32.7874 29.18 32.7874 27.2988C32.7874 25.433 32.5137 24.7372 31.6326 24.3625C31.0601 24.1193 30.8951 24.1043 30.3247 24.2447Z" fill="currentColor"/>
</svg>
