<svg width="55" height="51" viewBox="0 0 55 51" fill="none" xmlns="http://www.w3.org/2000/svg">
<path fill-rule="evenodd" clip-rule="evenodd" d="M25.7153 1.17784C23.7004 2.55931 23.6921 5.20209 25.6987 6.45449C26.3169 6.84036 26.3192 6.84753 26.2096 8.05903C26.0024 10.3473 25.9666 10.4276 25.1518 10.4276C24.138 10.4276 22.2201 11.072 21.4462 11.6726C20.9543 12.0544 20.427 12.2261 19.3088 12.3688C13.8592 13.064 10.542 14.4441 7.9103 17.1111C6.29797 18.7451 5.44685 20.1358 4.66354 22.4164C4.28179 23.5279 4.15949 23.6917 3.55239 23.9041C1.1379 24.7485 0.144287 26.9221 0.144287 31.3589C0.144287 35.8049 1.13695 37.969 3.56611 38.8186C4.17797 39.0328 4.30008 39.1877 4.57896 40.1044C5.56781 43.3565 8.07965 46.447 10.967 47.9641C14.6949 49.9231 19.4879 50.7344 27.3493 50.7371C34.986 50.7398 39.6209 49.951 43.4618 47.9953C46.3912 46.5036 48.9225 43.4152 49.9292 40.1044C50.2081 39.1877 50.3302 39.0328 50.9421 38.8186C53.4181 37.9527 54.3784 35.7987 54.3544 31.1651C54.3306 26.5575 53.3278 24.6394 50.4706 23.7355C50.299 23.681 50.1047 23.3302 50.034 22.9472C49.9641 22.5676 49.5176 21.466 49.0419 20.4992C46.7777 15.8974 42.7509 13.4537 35.8091 12.4686C34.1158 12.2282 33.5758 12.0713 33.0559 11.6678C32.2862 11.0706 30.3668 10.4276 29.3531 10.4276C28.5201 10.4276 28.4908 10.3654 28.3064 8.19877L28.1907 6.8421L28.8106 6.45449C30.8161 5.20054 30.8072 2.55893 28.7929 1.17784C28.3508 0.874533 27.8707 0.737122 27.2541 0.737122C26.6375 0.737122 26.1574 0.874533 25.7153 1.17784ZM21.6346 18.0131C11.8066 18.8776 9.22032 21.71 9.27099 31.5527C9.31481 40.0753 11.2866 42.9198 18.055 44.2247C20.7461 44.7436 25.0389 44.9878 29.2543 44.862C39.6441 44.5521 43.3384 42.7807 44.6802 37.4645C45.1919 35.4374 45.4025 32.9222 45.2892 30.1961C44.9204 21.3293 42.3 18.8241 32.53 17.9985C29.7257 17.7615 24.4144 17.7687 21.6346 18.0131ZM18.3609 27.9537C17.3788 28.3989 17.0627 29.228 17.0627 31.3589C17.0627 33.5416 17.3778 34.3302 18.4286 34.7768C19.5862 35.269 20.6752 34.8227 21.2957 33.6017C21.6906 32.8247 21.6906 29.8932 21.2957 29.1162C20.679 27.9029 19.5018 27.4366 18.3609 27.9537ZM34.5881 27.8153C33.9998 27.9601 33.3843 28.6311 33.1333 29.4009C32.8161 30.3736 32.8675 32.9232 33.218 33.6129C33.833 34.8223 34.9262 35.2671 36.0796 34.7768C37.1304 34.3302 37.4455 33.5416 37.4455 31.3589C37.4455 29.1941 37.1279 28.3867 36.1055 27.952C35.4413 27.6698 35.2498 27.6523 34.5881 27.8153Z" fill="#0FA47F"/>
</svg>
