<svg width="24" height="24" viewBox="0 0 24 24" fill="none" xmlns="http://www.w3.org/2000/svg">
<path d="M16.4 5.4C16.4 3.3254 16.4 2.2892 15.7554 1.6446C15.1108 1 14.0746 1 12 1C9.9254 1 8.8892 1 8.2446 1.6446C7.6 2.2892 7.6 3.3254 7.6 5.4M1 14.2C1 10.0519 1 7.9773 2.2892 6.6892C3.5773 5.4 5.6519 5.4 9.8 5.4H14.2C18.3481 5.4 20.4227 5.4 21.7108 6.6892C23 7.9773 23 10.0519 23 14.2C23 18.3481 23 20.4227 21.7108 21.7108C20.4227 23 18.3481 23 14.2 23H9.8C5.6519 23 3.5773 23 2.2892 21.7108C1 20.4227 1 18.3481 1 14.2Z" stroke="currentColor" stroke-width="1.2"/>
<path d="M11.9999 17.8662C13.2154 17.8662 14.1999 17.0456 14.1999 16.0336C14.1999 15.0216 13.2154 14.1999 11.9999 14.1999C10.7844 14.1999 9.79993 13.3793 9.79993 12.3662C9.79993 11.3542 10.7844 10.5336 11.9999 10.5336M11.9999 17.8662C10.7844 17.8662 9.79993 17.0456 9.79993 16.0336M11.9999 17.8662V18.5999M11.9999 10.5336V9.79993M11.9999 10.5336C13.2154 10.5336 14.1999 11.3542 14.1999 12.3662" stroke="currentColor" stroke-width="1.2" stroke-linecap="round"/>
</svg>
